<?xml version="1.0" encoding="UTF-8"?>
<svg version="1.1" xmlns="http://www.w3.org/2000/svg" width="1557" height="1315">
<path d="M0 0 C513.81 0 1027.62 0 1557 0 C1557 433.95 1557 867.9 1557 1315 C1043.19 1315 529.38 1315 0 1315 C0 881.05 0 447.1 0 0 Z " fill="#FEFEFE" transform="translate(0,0)"/>
<path d="M0 0 C0 0.66 0 1.32 0 2 C1.175625 1.896875 2.35125 1.79375 3.5625 1.6875 C9.5528136 1.6590199 14.79176907 3.71780401 20.3515625 5.7109375 C23.87446896 6.95564749 27.40467156 7.98673551 31 9 C48.86840446 14.48244692 48.86840446 14.48244692 56.859375 18.921875 C59.06565779 20.10016992 59.06565779 20.10016992 61.84375 20.9296875 C65.34707594 22.11769654 68.46632055 23.67372716 71.75 25.375 C76.69242978 27.90661584 81.66485879 30.12248223 86.84765625 32.11328125 C89.36004896 33.14833233 91.67010756 34.450366 93.99609375 35.8515625 C98.54210095 38.45687657 103.30120134 40.68532086 108 43 C108 43.66 108 44.32 108 45 C108.65871094 45.06316406 109.31742188 45.12632812 109.99609375 45.19140625 C114.20863617 46.3253416 117.43385467 48.56607551 121.0625 50.9375 C122.46905198 51.84400159 123.87657432 52.74899966 125.28515625 53.65234375 C125.90269775 54.05445068 126.52023926 54.45655762 127.15649414 54.87084961 C129.05619033 56.03441667 130.99458573 57.03205042 133 58 C133 58.66 133 59.32 133 60 C133.72960938 60.103125 134.45921875 60.20625 135.2109375 60.3125 C138.26486321 61.06528841 140.07860619 62.1798972 142.625 64 C145.17796131 65.81234113 147.00688125 67.00229375 150 68 C150 68.66 150 69.32 150 70 C151.32 70.33 152.64 70.66 154 71 C154 71.66 154 72.32 154 73 C154.556875 73.103125 155.11375 73.20625 155.6875 73.3125 C158.4769101 74.14178408 160.6139064 75.34299056 163 77 C163 77.66 163 78.32 163 79 C163.53625 79.061875 164.0725 79.12375 164.625 79.1875 C168.04369966 80.35705515 170.26923885 82.67594796 173 85 C173.99 85.33 174.98 85.66 176 86 C176 86.66 176 87.32 176 88 C177.04220703 88.37125 177.04220703 88.37125 178.10546875 88.75 C181.44024329 90.19011856 184.28754515 91.99075038 187.3125 94 C188.38113281 94.70125 189.44976563 95.4025 190.55078125 96.125 C191.35902344 96.74375 192.16726563 97.3625 193 98 C193 98.66 193 99.32 193 100 C193.515625 100.226875 194.03125 100.45375 194.5625 100.6875 C198.59362953 102.85810821 202.17857713 105.66632216 205.8671875 108.3671875 C208.84073944 110.52396981 211.689576 112.3903443 215 114 C216.66666667 115.66666667 218.33333333 117.33333333 220 119 C221.8596727 120.46056486 223.76284451 121.85075276 225.671875 123.24609375 C229.44295885 126.08706128 233.04986857 129.12642275 236.6796875 132.14453125 C238.84817558 134.01130791 238.84817558 134.01130791 241 135 C241 135.66 241 136.32 241 137 C241.7321875 137.25007812 242.464375 137.50015625 243.21875 137.7578125 C246.22764356 139.10167227 248.09850813 140.63417132 250.5 142.875 C252.89260291 145.08111479 255.21339783 147.16123391 257.8125 149.125 C261.89304975 152.62261407 263.77846036 155.60430025 264.625 160.9375 C264.41781586 165.23864274 262.41859643 167.63819457 259.60546875 170.75 C258 172 258 172 255 172 C255 172.66 255 173.32 255 174 C254.14019531 174.29132813 253.28039063 174.58265625 252.39453125 174.8828125 C244.89614661 177.48312473 237.78093256 180.36987642 230.64453125 183.86328125 C228 185 228 185 225 185 C225 185.66 225 186.32 225 187 C222.69 187.33 220.38 187.66 218 188 C218 188.66 218 189.32 218 190 C215.69 190.33 213.38 190.66 211 191 C211 191.66 211 192.32 211 193 C210.03578125 193.33773437 209.0715625 193.67546875 208.078125 194.0234375 C206.80203525 194.47382212 205.52599624 194.92435053 204.25 195.375 C203.61578125 195.59671875 202.9815625 195.8184375 202.328125 196.046875 C199.72109916 196.97019665 197.19679979 197.89888562 194.734375 199.1640625 C193 200 193 200 190 200 C190 200.66 190 201.32 190 202 C179.4521901 206.43911552 179.4521901 206.43911552 174.21484375 208.4921875 C167.80065319 211.00802097 161.54257626 213.63671144 155.4140625 216.80078125 C151.9044099 218.54424945 148.29414979 220.00200345 144.66796875 221.484375 C139.92548941 223.44399373 135.21369886 225.4723218 130.5 227.5 C124.95004742 229.88569328 119.3992528 232.26390575 113.8125 234.5625 C108.61241604 236.71660455 103.46008834 238.97396489 98.3125 241.25 C97.50852783 241.60392822 96.70455566 241.95785645 95.8762207 242.32250977 C92.17951531 243.75436352 92.17951531 243.75436352 89 246 C87.33382885 246.04063832 85.66611905 246.042721 84 246 C84 246.66 84 247.32 84 248 C82.39850114 248.67305018 80.79368971 249.33822227 79.1875 250 C77.84751953 250.556875 77.84751953 250.556875 76.48046875 251.125 C74 252 74 252 71 252 C71 252.66 71 253.32 71 254 C63.73648681 257.07554162 56.43342307 259.99922066 49.05859375 262.796875 C45.57404125 264.16755465 42.18309894 265.68806787 38.8046875 267.30078125 C37 268 37 268 34 268 C34 268.66 34 269.32 34 270 C32.25 270.72916667 30.5 271.45833333 28.75 272.1875 C27.65300781 272.64511719 26.55601562 273.10273438 25.42578125 273.57421875 C23.25806618 274.47640347 21.08896387 275.37526837 18.91796875 276.26953125 C13.19429633 278.63251528 7.53764572 281.10061657 1.91015625 283.68359375 C-5.71976506 287.13498097 -13.44853133 290.36466191 -21.1875 293.5625 C-28.19247419 296.47268901 -35.14518103 299.49429932 -41.875 303 C-46.39425998 305.30612444 -51.13995412 306.98801968 -55.8828125 308.7734375 C-59.10830771 310.04261732 -62.15386687 311.49124736 -65.2265625 313.0859375 C-69.54020151 315.30926686 -73.03725874 317 -78 317 C-78 317.66 -78 318.32 -78 319 C-79.98 319.33 -81.96 319.66 -84 320 C-84 320.66 -84 321.32 -84 322 C-84.8353125 322.26296875 -85.670625 322.5259375 -86.53125 322.796875 C-90.27858333 324.09662575 -93.88145279 325.63555762 -97.5 327.25 C-98.92168816 327.87802729 -100.34356679 328.50562356 -101.765625 329.1328125 C-102.47525391 329.44637695 -103.18488281 329.75994141 -103.91601562 330.08300781 C-111.30139884 333.33271486 -118.73023092 336.48169772 -126.1875 339.5625 C-131.02043613 341.56655751 -135.78594156 343.69301539 -140.5390625 345.87890625 C-142.5769995 346.80729977 -144.62202308 347.69799043 -146.6875 348.5625 C-149.2099151 349.65713297 -151.62061695 350.80930719 -154.0625 352.0625 C-157.30759407 353.70991366 -160.5365296 354.86907089 -164 356 C-166.33067837 357.03675003 -168.64351345 358.10418426 -170.94921875 359.1953125 C-173 360 -173 360 -176 360 C-176 360.66 -176 361.32 -176 362 C-178.64 362.33 -181.28 362.66 -184 363 C-184 363.66 -184 364.32 -184 365 C-185.98 365.33 -187.96 365.66 -190 366 C-190 366.66 -190 367.32 -190 368 C-190.845625 368.31453125 -191.69125 368.6290625 -192.5625 368.953125 C-199.91045586 371.68061369 -199.91045586 371.68061369 -207 375 C-220.39754098 382 -220.39754098 382 -227 382 C-228.70936563 394.9603992 -230.23456069 407.92586563 -231.5 420.9375 C-232.70941787 433.34251403 -234.09620409 445.71419566 -235.63818359 458.08203125 C-235.98084758 460.84554003 -236.31413223 463.61000172 -236.64453125 466.375 C-238.50550823 481.78582644 -240.66967272 497.15367167 -242.84301758 512.52294922 C-243.09475787 514.30693877 -243.34630724 516.09095528 -243.59765625 517.875 C-243.71930145 518.7379921 -243.84094666 519.60098419 -243.96627808 520.49012756 C-244.90991094 527.23658469 -245.76005789 533.99143375 -246.56201172 540.75610352 C-247.03014733 544.22328182 -247.7264735 547.56693522 -248.55859375 550.9609375 C-249.34767134 554.60605699 -249.64672273 558.2905887 -250 562 C-250.66 562 -251.32 562 -252 562 C-252.33 567.28 -252.66 572.56 -253 578 C-253.66 578 -254.32 578 -255 578 C-254.938125 579.485 -254.938125 579.485 -254.875 581 C-254.875 584.42110164 -255.53165013 587.43633246 -256.4387207 590.74169922 C-257.06388032 593.25702174 -257.46408589 595.75816924 -257.85546875 598.3203125 C-258.94766606 605.01129222 -260.43416162 611.58644304 -261.97213745 618.18722534 C-264.65919158 629.73702944 -267.17110836 641.2776755 -269 653 C-269.66 653 -270.32 653 -271 653 C-271.10570312 654.07378906 -271.21140625 655.14757812 -271.3203125 656.25390625 C-272.0318289 661.92731337 -273.46499981 667.40410901 -274.875 672.9375 C-275.13152344 673.97068359 -275.38804687 675.00386719 -275.65234375 676.06835938 C-276.99697092 681.40294809 -278.4752571 686.63382704 -280.26757812 691.8347168 C-281.5639442 695.66720702 -282.67145378 699.55654849 -283.8125 703.4375 C-286.65866735 713.03356455 -289.77333492 722.52596211 -293 732 C-293.66 732 -294.32 732 -295 732 C-295.33 734.97 -295.66 737.94 -296 741 C-296.66 741 -297.32 741 -298 741 C-298.04125 742.051875 -298.0825 743.10375 -298.125 744.1875 C-298.77596679 749.46963053 -301.08961089 753.82259077 -303.38671875 758.5703125 C-305.41796587 762.88855699 -307.08856451 767.30072369 -308.765625 771.765625 C-310.72281923 776.89396937 -312.85993122 781.945795 -315 787 C-315.66 787 -316.32 787 -317 787 C-317.1134375 787.54527344 -317.226875 788.09054687 -317.34375 788.65234375 C-318.1254799 791.44888939 -319.26937447 793.93311114 -320.5 796.5625 C-321.8114063 799.37211176 -323.01895192 802.05685576 -324 805 C-324.66 805 -325.32 805 -326 805 C-326.10183594 805.54914062 -326.20367188 806.09828125 -326.30859375 806.6640625 C-327.16313993 809.55117333 -328.51016454 811.79366769 -330.0625 814.375 C-332.06727209 817.7340161 -334.0650121 821.09015109 -335.9609375 824.51171875 C-339.60204264 831.07040503 -343.45606493 837.30899335 -347.9765625 843.3125 C-350.85531351 847.13601485 -353.58594337 851.06364444 -356.3359375 854.98046875 C-356.88507812 855.64691406 -357.43421875 856.31335937 -358 857 C-358.66 857 -359.32 857 -360 857 C-360.103125 857.598125 -360.20625 858.19625 -360.3125 858.8125 C-361.09824033 861.31258286 -361.96918853 862.37535082 -364 864 C-364.66 864 -365.32 864 -366 864 C-366.433125 864.8971875 -366.433125 864.8971875 -366.875 865.8125 C-368 868 -368 868 -370 871 C-370.66 871 -371.32 871 -372 871 C-372.33 871.99 -372.66 872.98 -373 874 C-373.66 874 -374.32 874 -375 874 C-375.33 874.99 -375.66 875.98 -376 877 C-376.66 877 -377.32 877 -378 877 C-378.33 877.99 -378.66 878.98 -379 880 C-379.66 880 -380.32 880 -381 880 C-381.33 880.99 -381.66 881.98 -382 883 C-383.375 884.6875 -383.375 884.6875 -385 886 C-385.99 886 -386.98 886 -388 886 C-388.33 886.99 -388.66 887.98 -389 889 C-391.319299 890.88936589 -393.62817774 892.64686359 -396.0625 894.375 C-396.7440918 894.86524658 -397.42568359 895.35549316 -398.12792969 895.8605957 C-410.91547318 905 -410.91547318 905 -415 905 C-415.33 905.99 -415.66 906.98 -416 908 C-416.99 908 -417.98 908 -419 908 C-419 908.66 -419 909.32 -419 910 C-421.31 910.33 -423.62 910.66 -426 911 C-426 911.66 -426 912.32 -426 913 C-427.98 913.33 -429.96 913.66 -432 914 C-432 914.66 -432 915.32 -432 916 C-434.14922956 916.71640985 -436.29865361 917.43213564 -438.44921875 918.14453125 C-440.01864497 918.67087787 -441.58466945 919.20766948 -443.14453125 919.76171875 C-458.20402859 925.04232171 -472.95502508 926.1791729 -488.80810547 926.13037109 C-490.86563544 926.12502434 -492.92294546 926.13034567 -494.98046875 926.13671875 C-506.82436653 926.1446821 -518.63289157 925.95233323 -530.1875 923.125 C-531.3336377 922.85610962 -531.3336377 922.85610962 -532.50292969 922.58178711 C-534.67204817 922.06752871 -536.83643256 921.53706324 -539 921 C-540.53333984 920.62681641 -540.53333984 920.62681641 -542.09765625 920.24609375 C-549.56547563 918.32139803 -556.7724786 915.66943491 -564 913 C-564 912.34 -564 911.68 -564 911 C-566.97 910.67 -569.94 910.34 -573 910 C-573 909.34 -573 908.68 -573 908 C-574.2684375 907.87625 -574.2684375 907.87625 -575.5625 907.75 C-578.93248839 907.01472981 -581.25719857 905.80729438 -584.1796875 904.0234375 C-586.51715174 902.70924086 -588.99687187 901.92941003 -591.515625 901.03125 C-601.7766879 896.77194087 -611.47925499 890.66646614 -621 885 C-621.804375 884.53207031 -622.60875 884.06414063 -623.4375 883.58203125 C-634.01755431 877.36972962 -644.15365447 870.38977697 -654.14453125 863.27734375 C-655.97116701 861.95657684 -655.97116701 861.95657684 -658 861 C-658 860.34 -658 859.68 -658 859 C-659.32 858.67 -660.64 858.34 -662 858 C-662 857.34 -662 856.68 -662 856 C-662.99 856 -663.98 856 -665 856 C-666.03786538 855.03935675 -667.02850555 854.0277152 -668 853 C-669.98195633 851.45572569 -671.98404204 849.93711579 -674 848.4375 C-675.5778125 847.25994141 -675.5778125 847.25994141 -677.1875 846.05859375 C-679.09436201 844.66287669 -681.03379828 843.31080114 -683 842 C-683 841.34 -683 840.68 -683 840 C-683.99 840 -684.98 840 -686 840 C-687.17620113 838.85740461 -688.34499642 837.70542563 -689.4609375 836.50390625 C-691.88357358 834.13660957 -694.65673742 832.27189744 -697.42578125 830.33203125 C-697.94527344 829.89246094 -698.46476563 829.45289063 -699 829 C-699 828.34 -699 827.68 -699 827 C-699.99 827 -700.98 827 -702 827 C-703.37868281 825.37064759 -704.71274093 823.70250393 -706 822 C-706.66 821.67 -707.32 821.34 -708 821 C-708 820.34 -708 819.68 -708 819 C-708.598125 818.71125 -709.19625 818.4225 -709.8125 818.125 C-712 817 -712 817 -715 815 C-715 814.34 -715 813.68 -715 813 C-715.99 812.67 -716.98 812.34 -718 812 C-718 811.34 -718 810.68 -718 810 C-718.61875 809.855625 -719.2375 809.71125 -719.875 809.5625 C-722 809 -722 809 -724 808 C-724 807.34 -724 806.68 -724 806 C-724.99 805.67 -725.98 805.34 -727 805 C-727 804.34 -727 803.68 -727 803 C-727.99 802.67 -728.98 802.34 -730 802 C-730 801.34 -730 800.68 -730 800 C-730.99 799.67 -731.98 799.34 -733 799 C-733 798.34 -733 797.68 -733 797 C-733.99 796.67 -734.98 796.34 -736 796 C-736 795.34 -736 794.68 -736 794 C-736.598125 793.71125 -737.19625 793.4225 -737.8125 793.125 C-740 792 -740 792 -743 790 C-743 789.34 -743 788.68 -743 788 C-743.99 787.67 -744.98 787.34 -746 787 C-746 786.34 -746 785.68 -746 785 C-746.99 784.67 -747.98 784.34 -749 784 C-749 783.34 -749 782.68 -749 782 C-749.99 781.67 -750.98 781.34 -752 781 C-752 780.34 -752 779.68 -752 779 C-752.99 778.67 -753.98 778.34 -755 778 C-755 777.34 -755 776.68 -755 776 C-755.99 775.67 -756.98 775.34 -758 775 C-758 774.34 -758 773.68 -758 773 C-758.99 772.67 -759.98 772.34 -761 772 C-761 771.34 -761 770.68 -761 770 C-761.680625 769.835 -762.36125 769.67 -763.0625 769.5 C-766.75866082 767.61259873 -768.72728747 765.13163169 -771.3515625 761.96875 C-773.05761815 759.86376654 -773.05761815 759.86376654 -775.4375 757.625 C-777 756 -777 756 -777 754 C-777.99 753.67 -778.98 753.34 -780 753 C-780 752.34 -780 751.68 -780 751 C-780.99 750.67 -781.98 750.34 -783 750 C-783 749.34 -783 748.68 -783 748 C-783.99 747.67 -784.98 747.34 -786 747 C-786 746.34 -786 745.68 -786 745 C-786.66 745 -787.32 745 -788 745 C-792 740.52941176 -792 740.52941176 -792 738 C-792.99 737.67 -793.98 737.34 -795 737 C-795 736.34 -795 735.68 -795 735 C-795.66 735 -796.32 735 -797 735 C-799.125 733.125 -799.125 733.125 -801 731 C-801 730.34 -801 729.68 -801 729 C-801.66 729 -802.32 729 -803 729 C-804.62109375 727.35546875 -804.62109375 727.35546875 -806.4375 725.1875 C-808.97339332 722.17536735 -808.97339332 722.17536735 -811.72265625 719.36328125 C-813 718 -813 718 -813 716 C-813.99 715.67 -814.98 715.34 -816 715 C-816.33333333 713.66666667 -816.66666667 712.33333333 -817 711 C-817.99 710.67 -818.98 710.34 -820 710 C-820 709.34 -820 708.68 -820 708 C-820.66 708 -821.32 708 -822 708 C-823.625 706.6875 -823.625 706.6875 -825 705 C-825 704.01 -825 703.02 -825 702 C-825.99 701.67 -826.98 701.34 -828 701 C-828 700.34 -828 699.68 -828 699 C-828.99 698.67 -829.98 698.34 -831 698 C-835 693.54285714 -835 693.54285714 -835 691 C-835.66 691 -836.32 691 -837 691 C-838.38089233 689.37251976 -839.70213607 687.69443347 -841 686 C-842.59882634 684.17388952 -844.20868029 682.35862671 -845.828125 680.55078125 C-847 679 -847 679 -847 677 C-847.99 676.67 -848.98 676.34 -850 676 C-850 675.34 -850 674.68 -850 674 C-850.66 674 -851.32 674 -852 674 C-853.4375 672.390625 -853.4375 672.390625 -855 670.25 C-855.515625 669.55390625 -856.03125 668.8578125 -856.5625 668.140625 C-858 666 -858 666 -859 663.796875 C-859.93115167 661.64784921 -859.93115167 661.64784921 -863 661 C-863.66666667 659.33333333 -864.33333333 657.66666667 -865 656 C-865.99 655.67 -866.98 655.34 -868 655 C-868 654.34 -868 653.68 -868 653 C-868.66 653 -869.32 653 -870 653 C-872.00031267 648.99937467 -871.62520685 644.33967105 -871 640 C-868.82951026 635.85784401 -865.46188306 633.96928164 -861.125 632.5625 C-860.35800781 632.34335937 -859.59101562 632.12421875 -858.80078125 631.8984375 C-855.19311192 630.74116561 -851.76883096 629.2268881 -848.3125 627.6875 C-847.62760498 627.38368408 -846.94270996 627.07986816 -846.23706055 626.7668457 C-844.84364088 626.14839866 -843.45049322 625.52933841 -842.05761719 624.90966797 C-836.72812433 622.55351107 -831.35889523 620.28821539 -826 618 C-825.38914551 617.72349609 -824.77829102 617.44699219 -824.14892578 617.16210938 C-821.25001313 615.86492761 -819.21430823 615 -816 615 C-816 614.34 -816 613.68 -816 613 C-814.87980469 612.59007812 -813.75960937 612.18015625 -812.60546875 611.7578125 C-811.132737 611.21374599 -809.66008489 610.66946389 -808.1875 610.125 C-807.44951172 609.85558594 -806.71152344 609.58617187 -805.95117188 609.30859375 C-804.88286133 608.91220703 -804.88286133 608.91220703 -803.79296875 608.5078125 C-803.1383667 608.26691895 -802.48376465 608.02602539 -801.80932617 607.77783203 C-799.72104063 606.94473832 -799.72104063 606.94473832 -797 605 C-794.3125 604.875 -794.3125 604.875 -792 605 C-792 604.34 -792 603.68 -792 603 C-790.58774074 602.32404685 -789.16997095 601.65959941 -787.75 601 C-786.96109375 600.62875 -786.1721875 600.2575 -785.359375 599.875 C-783 599 -783 599 -779 599 C-779 598.34 -779 597.68 -779 597 C-772.5230842 594.27414717 -766.02873364 591.59890592 -759.5 589 C-747.16979247 584.17236213 -747.16979247 584.17236213 -735.1875 578.5625 C-731.11400968 576.47353061 -726.94698677 574.72970025 -722.6875 573.0625 C-716.92764682 570.80730422 -711.32096383 568.33925496 -705.72265625 565.703125 C-700.1100644 563.09789833 -694.38994092 560.72915589 -688.68505859 558.3347168 C-683.41382473 556.10342462 -678.339732 553.68056086 -673.31323242 550.93774414 C-670.71451917 549.88427104 -668.77813399 549.82523403 -666 550 C-666 549.34 -666 548.68 -666 548 C-664.02 547.67 -662.04 547.34 -660 547 C-660 546.34 -660 545.68 -660 545 C-659.154375 544.68546875 -658.30875 544.3709375 -657.4375 544.046875 C-650.08954414 541.31938631 -650.08954414 541.31938631 -643 538 C-629.60245902 531 -629.60245902 531 -623 531 C-623 530.34 -623 529.68 -623 529 C-620.69 528.67 -618.38 528.34 -616 528 C-616 527.34 -616 526.68 -616 526 C-614.25 525.27083333 -612.5 524.54166667 -610.75 523.8125 C-609.65042969 523.35359375 -608.55085938 522.8946875 -607.41796875 522.421875 C-605.27692001 521.53119872 -603.13397462 520.64505315 -600.98828125 519.765625 C-594.65085065 517.15957877 -588.42787897 514.36634352 -582.21875 511.46875 C-578.20570805 509.6375561 -574.13769248 507.9647338 -570.0546875 506.296875 C-565.63660822 504.42116871 -561.32383026 502.3328899 -557.0078125 500.234375 C-553.97548527 498.98993941 -551.24254128 498.40652756 -548 498 C-548 497.34 -548 496.68 -548 496 C-547.41734375 495.76925781 -546.8346875 495.53851562 -546.234375 495.30078125 C-540.38549715 492.974105 -534.56687487 490.58210776 -528.76171875 488.1484375 C-527.85035156 487.76945312 -526.93898438 487.39046875 -526 487 C-525.11957031 486.62101562 -524.23914063 486.24203125 -523.33203125 485.8515625 C-521 485 -521 485 -518 485 C-518 484.34 -518 483.68 -518 483 C-515.69 482.67 -513.38 482.34 -511 482 C-511 481.34 -511 480.68 -511 480 C-509.25 479.27083333 -507.5 478.54166667 -505.75 477.8125 C-504.65042969 477.35359375 -503.55085938 476.8946875 -502.41796875 476.421875 C-500.27692001 475.53119872 -498.13397462 474.64505315 -495.98828125 473.765625 C-490.76964975 471.61964569 -485.61487489 469.38369021 -480.5 467 C-474.4006626 464.15751976 -468.22672178 461.54880478 -462 459 C-454.39533968 455.86280048 -446.81796661 452.66204902 -439.25 449.4375 C-437.91884155 448.87337402 -437.91884155 448.87337402 -436.56079102 448.29785156 C-431.89959894 446.30612039 -427.3343522 444.20883405 -422.81787109 441.90844727 C-420.15340653 440.57693066 -417.43290409 439.40371067 -414.6875 438.25 C-413.17736328 437.60804688 -413.17736328 437.60804688 -411.63671875 436.953125 C-409 436 -409 436 -406 436 C-406 435.34 -406 434.68 -406 434 C-403.36 433.67 -400.72 433.34 -398 433 C-398 432.34 -398 431.68 -398 431 C-397.26136719 430.69707031 -396.52273438 430.39414062 -395.76171875 430.08203125 C-390.67998249 427.98347435 -385.62206796 425.85623611 -380.625 423.5625 C-376.3249245 421.59657288 -372.01718215 419.64987504 -367.6875 417.75 C-366.55699219 417.24984375 -365.42648437 416.7496875 -364.26171875 416.234375 C-361.14030126 415.05309605 -358.30175597 414.41958775 -355 414 C-355 413.34 -355 412.68 -355 412 C-354.154375 411.68546875 -353.30875 411.3709375 -352.4375 411.046875 C-346.79141539 408.91676126 -341.29101697 406.7530099 -335.94140625 403.9609375 C-332.93882926 402.47475251 -329.82804688 401.28927224 -326.7109375 400.06640625 C-317.09107242 396.2848244 -317.09107242 396.2848244 -307.75 391.875 C-298.25762195 387 -298.25762195 387 -293 387 C-293 386.34 -293 385.68 -293 385 C-290.69 384.67 -288.38 384.34 -286 384 C-286 383.34 -286 382.68 -286 382 C-284.02 381.67 -282.04 381.34 -280 381 C-280 380.34 -280 379.68 -280 379 C-278.9378125 378.61328125 -277.875625 378.2265625 -276.78125 377.828125 C-269.64893817 375.20735234 -262.72671253 372.56120075 -256 369 C-255.01 368.67 -254.02 368.34 -253 368 C-252.93941406 367.22914063 -252.87882813 366.45828125 -252.81640625 365.6640625 C-252.73261719 364.66117188 -252.64882813 363.65828125 -252.5625 362.625 C-252.48128906 361.62726563 -252.40007813 360.62953125 -252.31640625 359.6015625 C-252 357 -252 357 -251 355 C-250.87077777 353.495497 -250.79764229 351.98597127 -250.75390625 350.4765625 C-250.72240479 349.54900146 -250.69090332 348.62144043 -250.65844727 347.66577148 C-250.61095337 346.1605896 -250.61095337 346.1605896 -250.5625 344.625 C-250.28605665 337.19551306 -249.87696983 329.82774203 -249.0625 322.4375 C-248.08619068 313.557072 -247.45295871 304.66339309 -246.875 295.75 C-246.83061798 295.06582001 -246.78623596 294.38164001 -246.74050903 293.67672729 C-246.4891406 289.78476571 -246.24259978 285.89251738 -246 282 C-245.34 282 -244.68 282 -244 282 C-244.03480469 280.62328125 -244.03480469 280.62328125 -244.0703125 279.21875 C-244.23766193 267.83898879 -244.23766193 267.83898879 -242.55859375 262.234375 C-241.824466 259.29786399 -241.52644824 256.38356911 -241.1875 253.375 C-238.33377742 228.85334811 -234.08395731 204.07188419 -226.96875 180.40234375 C-225.81740177 176.35869735 -224.87159844 172.28572371 -223.9375 168.1875 C-222.7586492 163.04026872 -221.48923869 157.9983695 -219.70703125 153.0234375 C-218.91849048 150.76672965 -218.27448936 148.48792601 -217.625 146.1875 C-216.24404884 141.54183866 -214.44602877 137.16638159 -212.5390625 132.71484375 C-209.11160984 124.57988978 -206.1138444 116.25870919 -203 108 C-202.34 108 -201.68 108 -201 108 C-200.67 106.35 -200.34 104.7 -200 103 C-199.34 103 -198.68 103 -198 103 C-197.93554688 102.20722656 -197.87109375 101.41445313 -197.8046875 100.59765625 C-196.7160722 95.73059463 -194.50295042 91.79258484 -192.125 87.4375 C-191.67769531 86.60025391 -191.23039063 85.76300781 -190.76953125 84.90039062 C-189.52963537 82.59067307 -188.26977603 80.29339278 -187 78 C-186.44054687 76.98035156 -185.88109375 75.96070313 -185.3046875 74.91015625 C-184.87414062 74.27980469 -184.44359375 73.64945312 -184 73 C-183.34 73 -182.68 73 -182 73 C-181.73574219 72.44699219 -181.47148438 71.89398438 -181.19921875 71.32421875 C-176.3180769 61.86402526 -169.91088348 52.2019652 -162 45 C-161.34 45 -160.68 45 -160 45 C-159.7525 44.4225 -159.505 43.845 -159.25 43.25 C-157.81700012 40.67060021 -156.21575324 38.93878408 -154 37 C-153.34 37 -152.68 37 -152 37 C-151.34 35.68 -150.68 34.36 -150 33 C-149.34 33 -148.68 33 -148 33 C-147.67 32.01 -147.34 31.02 -147 30 C-145.2578125 28.39453125 -145.2578125 28.39453125 -143.125 26.8125 C-142.42632813 26.28269531 -141.72765625 25.75289062 -141.0078125 25.20703125 C-139 24 -139 24 -136 24 C-135.67 23.01 -135.34 22.02 -135 21 C-133.42578125 19.89453125 -133.42578125 19.89453125 -131.3125 18.8125 C-128.30834924 17.23797725 -125.34503111 15.63092263 -122.4296875 13.8984375 C-121.50289185 13.35159302 -121.50289185 13.35159302 -120.55737305 12.79370117 C-119.3261891 12.0653431 -118.09837026 11.33126173 -116.87426758 10.59106445 C-113.53412638 8.63635206 -111.98392435 8 -108 8 C-108 7.34 -108 6.68 -108 6 C-105.69 5.67 -103.38 5.34 -101 5 C-101 4.34 -101 3.68 -101 3 C-96.545 2.505 -96.545 2.505 -92 2 C-92 1.34 -92 0.68 -92 0 C-91.07316406 -0.13277344 -90.14632812 -0.26554688 -89.19140625 -0.40234375 C-87.39509766 -0.66724609 -87.39509766 -0.66724609 -85.5625 -0.9375 C-83.77005859 -1.19853516 -83.77005859 -1.19853516 -81.94140625 -1.46484375 C-79.12044324 -1.68985213 -79.12044324 -1.68985213 -78 -3 C-53.00286335 -7.72359686 -24.56422542 -6.72378433 0 0 Z " fill="#F2C067" transform="translate(1071,190)"/>
<path d="M0 0 C1.745742 0.331089 3.49483913 0.64474256 5.24609375 0.9453125 C10.94794579 1.94447564 16.4845541 3.33761562 22.0625 4.875 C22.97837891 5.11863281 23.89425781 5.36226562 24.83789062 5.61328125 C30.22063006 7.08372528 35.35601245 8.8438395 40.51049805 10.97802734 C43.03892939 12.01598101 45.5851691 12.9812951 48.1484375 13.9296875 C57.71698893 17.48554982 67.025629 21.09475374 76 26 C76 26.66 76 27.32 76 28 C78.31 28.33 80.62 28.66 83 29 C83 29.66 83 30.32 83 31 C83.65742187 31.07863281 84.31484375 31.15726563 84.9921875 31.23828125 C89.07106418 32.27124353 92.44938918 34.17475299 96.125 36.1875 C97.25071411 36.79489014 97.25071411 36.79489014 98.39916992 37.41455078 C99.90386794 38.22749112 101.40707382 39.04320004 102.90869141 39.86181641 C104.7401031 40.85855249 106.57848481 41.84245989 108.41796875 42.82421875 C115.49483939 46.61574053 115.49483939 46.61574053 118.10546875 48.6015625 C120.0517182 50.18889458 120.0517182 50.18889458 123 51 C123 51.66 123 52.32 123 53 C123.721875 53.103125 124.44375 53.20625 125.1875 53.3125 C128.27793421 54.06793947 130.41743841 55.15531315 133 57 C133 57.66 133 58.32 133 59 C133.556875 59.103125 134.11375 59.20625 134.6875 59.3125 C137.44818433 60.13324399 139.5720716 61.46657154 142 63 C142.66 63.33 143.32 63.66 144 64 C144 64.66 144 65.32 144 66 C144.53109375 66.08378906 145.0621875 66.16757812 145.609375 66.25390625 C148.89328065 67.2787853 151.39409062 69.03011125 154.25 70.9375 C155.32765625 71.64777344 156.4053125 72.35804688 157.515625 73.08984375 C158.33546875 73.72019531 159.1553125 74.35054688 160 75 C160 75.66 160 76.32 160 77 C160.7425 77.103125 161.485 77.20625 162.25 77.3125 C165.1973519 78.04933797 166.78383074 78.94799142 169 81 C169 81.66 169 82.32 169 83 C169.57621094 83.103125 170.15242188 83.20625 170.74609375 83.3125 C173.37029497 84.11294959 174.92816938 85.28924559 177.0625 87 C179.49603602 88.9430921 181.00385831 90.0012861 184 91 C184.33 91.66 184.66 92.32 185 93 C185.99 93.33 186.98 93.66 188 94 C188 94.66 188 95.32 188 96 C188.763125 96.28875 189.52625 96.5775 190.3125 96.875 C193 98 193 98 196 100 C196 100.66 196 101.32 196 102 C196.58918213 102.27908203 197.17836426 102.55816406 197.78540039 102.84570312 C199.84492274 103.9191704 201.58514884 105.07052351 203.43359375 106.46875 C204.07643311 106.95279297 204.71927246 107.43683594 205.3815918 107.93554688 C206.0600415 108.45181641 206.73849121 108.96808594 207.4375 109.5 C208.14108643 110.03173828 208.84467285 110.56347656 209.56958008 111.11132812 C233.06900269 128.89954563 233.06900269 128.89954563 239 135 C235.77208445 137.1519437 234.71599191 137.20086443 231 137 C231 137.66 231 138.32 231 139 C229.39850114 139.67305018 227.79368971 140.33822227 226.1875 141 C224.84751953 141.556875 224.84751953 141.556875 223.48046875 142.125 C221 143 221 143 218 143 C218 143.66 218 144.32 218 145 C217.41621582 145.21615967 216.83243164 145.43231934 216.23095703 145.6550293 C213.52678766 146.66008336 210.82591909 147.67374533 208.125 148.6875 C207.2071875 149.02716797 206.289375 149.36683594 205.34375 149.71679688 C199.87169195 151.77845255 194.66546318 154.09493471 189.46533203 156.76586914 C185.35046315 158.82574854 181.11493589 160.5908369 176.875 162.375 C175.04137163 163.15164756 173.20804157 163.92899975 171.375 164.70703125 C170.47394531 165.08939941 169.57289063 165.47176758 168.64453125 165.86572266 C166.14934861 166.93594224 163.66632448 168.02921391 161.1875 169.13671875 C160.45547363 169.4630127 159.72344727 169.78930664 158.96923828 170.12548828 C157.6062478 170.73532244 156.24513061 171.34936661 154.88623047 171.96826172 C152.06030744 173.22866407 150.13482985 174 147 174 C147 174.66 147 175.32 147 176 C146.11699219 176.30292969 145.23398438 176.60585938 144.32421875 176.91796875 C137.40676281 179.33276271 130.72319987 181.90230775 124.109375 185.08203125 C122 186 122 186 120 186 C120 186.66 120 187.32 120 188 C117.69 188.33 115.38 188.66 113 189 C113 189.66 113 190.32 113 191 C111.845 191.350625 110.69 191.70125 109.5 192.0625 C104.0816437 193.84564746 98.93240806 196.18055685 93.76171875 198.57446289 C89.83588229 200.35215477 86.33017906 201.50165902 82 202 C82 202.66 82 203.32 82 204 C80.23141309 204.67260351 78.46003984 205.33788395 76.6875 206 C75.70136719 206.37125 74.71523437 206.7425 73.69921875 207.125 C71 208 71 208 68 208 C68 208.66 68 209.32 68 210 C67.16597656 210.31453125 66.33195312 210.6290625 65.47265625 210.953125 C53.59175505 215.38675624 53.59175505 215.38675624 42.3125 221.125 C39 223 39 223 36.26953125 223.890625 C31.78268172 225.41304467 27.62980814 227.50647313 23.390625 229.609375 C19.93071193 231.27629668 17.91799494 232 14 232 C14 232.66 14 233.32 14 234 C12.12616097 234.79441072 10.25087114 235.58539974 8.375 236.375 C7.33085938 236.81585938 6.28671875 237.25671875 5.2109375 237.7109375 C0.16407065 239.73705193 -4.61001995 241.23000285 -10 242 C-10 242.66 -10 243.32 -10 244 C-11.98 244.33 -13.96 244.66 -16 245 C-16 245.66 -16 246.32 -16 247 C-17.18335938 247.44730469 -18.36671875 247.89460937 -19.5859375 248.35546875 C-27.19400516 251.25700059 -34.67984587 254.14549541 -41.89453125 257.9453125 C-43.99914629 258.99957235 -46.09802095 259.83089846 -48.3125 260.625 C-51.86815116 261.81227213 -51.86815116 261.81227213 -54.3125 263.4375 C-57.35761642 265.20791652 -60.34781446 266.26052487 -63.6875 267.375 C-69.05970096 269.23156945 -74.02659282 271.3590633 -79.01171875 274.08203125 C-81 275 -81 275 -84 275 C-84 275.66 -84 276.32 -84 277 C-84.89138672 277.23783203 -84.89138672 277.23783203 -85.80078125 277.48046875 C-92.53966641 279.37741776 -98.69018721 281.99134754 -105 285 C-107.33093464 286.10922142 -109.66430056 287.21334732 -112 288.3125 C-113.0725 288.82425781 -114.145 289.33601563 -115.25 289.86328125 C-118 291 -118 291 -121 291 C-121 291.66 -121 292.32 -121 293 C-123.64 293.33 -126.28 293.66 -129 294 C-129 294.66 -129 295.32 -129 296 C-130.98 296.33 -132.96 296.66 -135 297 C-135 297.66 -135 298.32 -135 299 C-135.82242188 299.30292969 -136.64484375 299.60585938 -137.4921875 299.91796875 C-143.70818483 302.25076221 -149.65018648 304.75762113 -155.5390625 307.81640625 C-158.14788964 309.07112787 -160.76729659 310.04699839 -163.5 311 C-168.05105197 312.58742741 -172.22960007 314.55427049 -176.5078125 316.76171875 C-187.05047319 322 -187.05047319 322 -192 322 C-192 322.66 -192 323.32 -192 324 C-192.804375 324.2475 -193.60875 324.495 -194.4375 324.75 C-199.60682137 326.56379697 -204.53001429 328.86888505 -209.5078125 331.1484375 C-210.71050781 331.69371094 -210.71050781 331.69371094 -211.9375 332.25 C-212.66839844 332.58515625 -213.39929688 332.9203125 -214.15234375 333.265625 C-216 334 -216 334 -218 334 C-217.76114241 327.97134186 -217.51252858 321.94318853 -217.25537109 315.9152832 C-217.16943949 313.87014333 -217.08604593 311.824895 -217.00537109 309.77954102 C-216.6028344 299.61424707 -216.19632124 289.61225993 -214.43261719 279.5793457 C-213.84862608 276.09747998 -213.68862909 272.71529236 -213.5625 269.1875 C-213.26990479 262.92870562 -212.34265199 256.98684342 -211.08618164 250.85571289 C-210.235829 246.5977009 -209.73962651 242.45824609 -209.5 238.125 C-209.01010148 229.62381985 -207.52759343 221.36458789 -206 213 C-205.78537109 211.80358887 -205.78537109 211.80358887 -205.56640625 210.58300781 C-201.98937842 190.72733785 -198.06746408 170.81767252 -192.08984375 151.53125 C-191.11361602 148.36813221 -190.22317424 145.19933079 -189.375 142 C-188.32443234 138.091184 -187.12931009 134.26669346 -185.80859375 130.44140625 C-184.83545625 127.50318916 -183.99043154 124.53416252 -183.125 121.5625 C-181.60170215 116.5565479 -179.68773274 112.11073221 -177.23828125 107.5 C-175.08723313 103.15718992 -173.55929907 98.58207435 -172 94 C-171.34 94 -170.68 94 -170 94 C-169.84724609 92.69675781 -169.84724609 92.69675781 -169.69140625 91.3671875 C-168.95465207 87.77915302 -167.75250461 85.29160378 -165.9375 82.125 C-165.38964844 81.15820312 -164.84179688 80.19140625 -164.27734375 79.1953125 C-163.64505859 78.10863281 -163.64505859 78.10863281 -163 77 C-162.34 77 -161.68 77 -161 77 C-160.896875 76.29875 -160.79375 75.5975 -160.6875 74.875 C-159.90640997 71.60862353 -158.57941257 68.9528148 -157 66 C-156.34 66 -155.68 66 -155 66 C-154.89558594 65.43796875 -154.79117188 64.8759375 -154.68359375 64.296875 C-153.87386765 61.57619529 -152.63796662 59.60742193 -151.0625 57.25 C-150.53785156 56.45078125 -150.01320313 55.6515625 -149.47265625 54.828125 C-148.98667969 54.22484375 -148.50070312 53.6215625 -148 53 C-147.34 53 -146.68 53 -146 53 C-145.75765625 52.27554688 -145.5153125 51.55109375 -145.265625 50.8046875 C-143.83548179 47.63541953 -142.12605443 45.65460897 -139.75 43.125 C-136.9912635 40.15371237 -134.27729632 37.18217792 -131.6875 34.0625 C-129.65726289 31.67795558 -127.70419119 29.64183037 -125 28 C-124.34 28 -123.68 28 -123 28 C-123 27.34 -123 26.68 -123 26 C-120.86328125 24.140625 -120.86328125 24.140625 -118 22 C-117.08605469 21.31421875 -116.17210937 20.6284375 -115.23046875 19.921875 C-101.86189125 10.38024587 -87.02682492 2.53864424 -70.77734375 -0.60546875 C-68.90757766 -0.94506059 -68.90757766 -0.94506059 -67 -2 C-45.45225667 -5.75577715 -21.11638805 -6.08476497 0 0 Z " fill="#9CC1F8" transform="translate(1062,213)"/>
<path d="M0 0 C0 0.66 0 1.32 0 2 C1.175625 1.896875 2.35125 1.79375 3.5625 1.6875 C9.5528136 1.6590199 14.79176907 3.71780401 20.3515625 5.7109375 C23.87446896 6.95564749 27.40467156 7.98673551 31 9 C48.86840446 14.48244692 48.86840446 14.48244692 56.859375 18.921875 C59.06565779 20.10016992 59.06565779 20.10016992 61.84375 20.9296875 C65.34707594 22.11769654 68.46632055 23.67372716 71.75 25.375 C76.69242978 27.90661584 81.66485879 30.12248223 86.84765625 32.11328125 C89.36004896 33.14833233 91.67010756 34.450366 93.99609375 35.8515625 C98.54210095 38.45687657 103.30120134 40.68532086 108 43 C108 43.66 108 44.32 108 45 C108.65871094 45.06316406 109.31742188 45.12632812 109.99609375 45.19140625 C114.20863617 46.3253416 117.43385467 48.56607551 121.0625 50.9375 C122.46905198 51.84400159 123.87657432 52.74899966 125.28515625 53.65234375 C125.90269775 54.05445068 126.52023926 54.45655762 127.15649414 54.87084961 C129.05619033 56.03441667 130.99458573 57.03205042 133 58 C133 58.66 133 59.32 133 60 C133.72960938 60.103125 134.45921875 60.20625 135.2109375 60.3125 C138.26486321 61.06528841 140.07860619 62.1798972 142.625 64 C145.17796131 65.81234113 147.00688125 67.00229375 150 68 C150 68.66 150 69.32 150 70 C151.32 70.33 152.64 70.66 154 71 C154 71.66 154 72.32 154 73 C154.556875 73.103125 155.11375 73.20625 155.6875 73.3125 C158.4769101 74.14178408 160.6139064 75.34299056 163 77 C163 77.66 163 78.32 163 79 C163.53625 79.061875 164.0725 79.12375 164.625 79.1875 C168.04369966 80.35705515 170.26923885 82.67594796 173 85 C173.99 85.33 174.98 85.66 176 86 C176 86.66 176 87.32 176 88 C177.04220703 88.37125 177.04220703 88.37125 178.10546875 88.75 C181.44024329 90.19011856 184.28754515 91.99075038 187.3125 94 C188.38113281 94.70125 189.44976563 95.4025 190.55078125 96.125 C191.35902344 96.74375 192.16726563 97.3625 193 98 C193 98.66 193 99.32 193 100 C193.515625 100.226875 194.03125 100.45375 194.5625 100.6875 C198.59362953 102.85810821 202.17857713 105.66632216 205.8671875 108.3671875 C208.84073944 110.52396981 211.689576 112.3903443 215 114 C216.66666667 115.66666667 218.33333333 117.33333333 220 119 C221.8596727 120.46056486 223.76284451 121.85075276 225.671875 123.24609375 C229.44295885 126.08706128 233.04986857 129.12642275 236.6796875 132.14453125 C238.84817558 134.01130791 238.84817558 134.01130791 241 135 C241 135.66 241 136.32 241 137 C241.7321875 137.25007812 242.464375 137.50015625 243.21875 137.7578125 C246.22764356 139.10167227 248.09850813 140.63417132 250.5 142.875 C252.89260291 145.08111479 255.21339783 147.16123391 257.8125 149.125 C261.89304975 152.62261407 263.77846036 155.60430025 264.625 160.9375 C264.41781586 165.23864274 262.41859643 167.63819457 259.60546875 170.75 C258 172 258 172 255 172 C255 172.66 255 173.32 255 174 C254.14019531 174.29132813 253.28039063 174.58265625 252.39453125 174.8828125 C244.89614661 177.48312473 237.78093256 180.36987642 230.64453125 183.86328125 C228 185 228 185 225 185 C225 185.66 225 186.32 225 187 C222.69 187.33 220.38 187.66 218 188 C218 188.66 218 189.32 218 190 C215.69 190.33 213.38 190.66 211 191 C211 191.66 211 192.32 211 193 C210.03578125 193.33773437 209.0715625 193.67546875 208.078125 194.0234375 C206.80203525 194.47382212 205.52599624 194.92435053 204.25 195.375 C203.61578125 195.59671875 202.9815625 195.8184375 202.328125 196.046875 C199.72109916 196.97019665 197.19679979 197.89888562 194.734375 199.1640625 C193 200 193 200 190 200 C190 200.66 190 201.32 190 202 C179.4521901 206.43911552 179.4521901 206.43911552 174.21484375 208.4921875 C167.80065319 211.00802097 161.54257626 213.63671144 155.4140625 216.80078125 C151.9044099 218.54424945 148.29414979 220.00200345 144.66796875 221.484375 C139.92548941 223.44399373 135.21369886 225.4723218 130.5 227.5 C124.95004742 229.88569328 119.3992528 232.26390575 113.8125 234.5625 C108.61241604 236.71660455 103.46008834 238.97396489 98.3125 241.25 C97.50852783 241.60392822 96.70455566 241.95785645 95.8762207 242.32250977 C92.17951531 243.75436352 92.17951531 243.75436352 89 246 C87.33382885 246.04063832 85.66611905 246.042721 84 246 C84 246.66 84 247.32 84 248 C82.39850114 248.67305018 80.79368971 249.33822227 79.1875 250 C77.84751953 250.556875 77.84751953 250.556875 76.48046875 251.125 C74 252 74 252 71 252 C71 252.66 71 253.32 71 254 C63.73648681 257.07554162 56.43342307 259.99922066 49.05859375 262.796875 C45.57404125 264.16755465 42.18309894 265.68806787 38.8046875 267.30078125 C37 268 37 268 34 268 C34 268.66 34 269.32 34 270 C32.25 270.72916667 30.5 271.45833333 28.75 272.1875 C27.65300781 272.64511719 26.55601562 273.10273438 25.42578125 273.57421875 C23.25806618 274.47640347 21.08896387 275.37526837 18.91796875 276.26953125 C13.19429633 278.63251528 7.53764572 281.10061657 1.91015625 283.68359375 C-5.71976506 287.13498097 -13.44853133 290.36466191 -21.1875 293.5625 C-28.19247419 296.47268901 -35.14518103 299.49429932 -41.875 303 C-46.39425998 305.30612444 -51.13995412 306.98801968 -55.8828125 308.7734375 C-59.10830771 310.04261732 -62.15386687 311.49124736 -65.2265625 313.0859375 C-69.54020151 315.30926686 -73.03725874 317 -78 317 C-78 317.66 -78 318.32 -78 319 C-79.98 319.33 -81.96 319.66 -84 320 C-84 320.66 -84 321.32 -84 322 C-84.8353125 322.26296875 -85.670625 322.5259375 -86.53125 322.796875 C-90.27858333 324.09662575 -93.88145279 325.63555762 -97.5 327.25 C-98.92168816 327.87802729 -100.34356679 328.50562356 -101.765625 329.1328125 C-102.47525391 329.44637695 -103.18488281 329.75994141 -103.91601562 330.08300781 C-111.30139884 333.33271486 -118.73023092 336.48169772 -126.1875 339.5625 C-131.02043613 341.56655751 -135.78594156 343.69301539 -140.5390625 345.87890625 C-142.5769995 346.80729977 -144.62202308 347.69799043 -146.6875 348.5625 C-149.2099151 349.65713297 -151.62061695 350.80930719 -154.0625 352.0625 C-157.30759407 353.70991366 -160.5365296 354.86907089 -164 356 C-166.33067837 357.03675003 -168.64351345 358.10418426 -170.94921875 359.1953125 C-173 360 -173 360 -176 360 C-176 360.66 -176 361.32 -176 362 C-178.64 362.33 -181.28 362.66 -184 363 C-184 363.66 -184 364.32 -184 365 C-185.98 365.33 -187.96 365.66 -190 366 C-190 366.66 -190 367.32 -190 368 C-190.845625 368.31453125 -191.69125 368.6290625 -192.5625 368.953125 C-199.91045586 371.68061369 -199.91045586 371.68061369 -207 375 C-220.39754098 382 -220.39754098 382 -227 382 C-228.70936563 394.9603992 -230.23456069 407.92586563 -231.5 420.9375 C-232.70941787 433.34251403 -234.09620409 445.71419566 -235.63818359 458.08203125 C-235.98084758 460.84554003 -236.31413223 463.61000172 -236.64453125 466.375 C-238.50550823 481.78582644 -240.66967272 497.15367167 -242.84301758 512.52294922 C-243.09475787 514.30693877 -243.34630724 516.09095528 -243.59765625 517.875 C-243.71930145 518.7379921 -243.84094666 519.60098419 -243.96627808 520.49012756 C-244.90991094 527.23658469 -245.76005789 533.99143375 -246.56201172 540.75610352 C-247.03014733 544.22328182 -247.7264735 547.56693522 -248.55859375 550.9609375 C-249.34767134 554.60605699 -249.64672273 558.2905887 -250 562 C-250.66 562 -251.32 562 -252 562 C-252.33 567.28 -252.66 572.56 -253 578 C-253.66 578 -254.32 578 -255 578 C-254.938125 579.485 -254.938125 579.485 -254.875 581 C-254.875 584.42110164 -255.53165013 587.43633246 -256.4387207 590.74169922 C-257.06388032 593.25702174 -257.46408589 595.75816924 -257.85546875 598.3203125 C-258.94766606 605.01129222 -260.43416162 611.58644304 -261.97213745 618.18722534 C-264.65919158 629.73702944 -267.17110836 641.2776755 -269 653 C-269.66 653 -270.32 653 -271 653 C-271.10570312 654.07378906 -271.21140625 655.14757812 -271.3203125 656.25390625 C-272.0318289 661.92731337 -273.46499981 667.40410901 -274.875 672.9375 C-275.13152344 673.97068359 -275.38804687 675.00386719 -275.65234375 676.06835938 C-276.99697092 681.40294809 -278.4752571 686.63382704 -280.26757812 691.8347168 C-281.5639442 695.66720702 -282.67145378 699.55654849 -283.8125 703.4375 C-286.65866735 713.03356455 -289.77333492 722.52596211 -293 732 C-293.66 732 -294.32 732 -295 732 C-295.33 734.97 -295.66 737.94 -296 741 C-296.66 741 -297.32 741 -298 741 C-298.04125 742.051875 -298.0825 743.10375 -298.125 744.1875 C-298.77596679 749.46963053 -301.08961089 753.82259077 -303.38671875 758.5703125 C-305.41796587 762.88855699 -307.08856451 767.30072369 -308.765625 771.765625 C-310.72281923 776.89396937 -312.85993122 781.945795 -315 787 C-315.66 787 -316.32 787 -317 787 C-317.1134375 787.54527344 -317.226875 788.09054687 -317.34375 788.65234375 C-318.1254799 791.44888939 -319.26937447 793.93311114 -320.5 796.5625 C-321.8114063 799.37211176 -323.01895192 802.05685576 -324 805 C-324.66 805 -325.32 805 -326 805 C-326.10183594 805.54914062 -326.20367188 806.09828125 -326.30859375 806.6640625 C-327.16313993 809.55117333 -328.51016454 811.79366769 -330.0625 814.375 C-332.06727209 817.7340161 -334.0650121 821.09015109 -335.9609375 824.51171875 C-339.60204264 831.07040503 -343.45606493 837.30899335 -347.9765625 843.3125 C-350.85531351 847.13601485 -353.58594337 851.06364444 -356.3359375 854.98046875 C-356.88507812 855.64691406 -357.43421875 856.31335937 -358 857 C-358.66 857 -359.32 857 -360 857 C-360.103125 857.598125 -360.20625 858.19625 -360.3125 858.8125 C-361.09824033 861.31258286 -361.96918853 862.37535082 -364 864 C-364.66 864 -365.32 864 -366 864 C-366.433125 864.8971875 -366.433125 864.8971875 -366.875 865.8125 C-368 868 -368 868 -370 871 C-370.66 871 -371.32 871 -372 871 C-372.33 871.99 -372.66 872.98 -373 874 C-373.66 874 -374.32 874 -375 874 C-375.33 874.99 -375.66 875.98 -376 877 C-376.66 877 -377.32 877 -378 877 C-378.33 877.99 -378.66 878.98 -379 880 C-379.66 880 -380.32 880 -381 880 C-381.33 880.99 -381.66 881.98 -382 883 C-383.375 884.6875 -383.375 884.6875 -385 886 C-385.99 886 -386.98 886 -388 886 C-388.33 886.99 -388.66 887.98 -389 889 C-391.319299 890.88936589 -393.62817774 892.64686359 -396.0625 894.375 C-396.7440918 894.86524658 -397.42568359 895.35549316 -398.12792969 895.8605957 C-410.91547318 905 -410.91547318 905 -415 905 C-415.33 905.99 -415.66 906.98 -416 908 C-416.99 908 -417.98 908 -419 908 C-419 908.66 -419 909.32 -419 910 C-421.31 910.33 -423.62 910.66 -426 911 C-426 911.66 -426 912.32 -426 913 C-427.98 913.33 -429.96 913.66 -432 914 C-432 914.66 -432 915.32 -432 916 C-434.14922956 916.71640985 -436.29865361 917.43213564 -438.44921875 918.14453125 C-440.01864497 918.67087787 -441.58466945 919.20766948 -443.14453125 919.76171875 C-458.20402859 925.04232171 -472.95502508 926.1791729 -488.80810547 926.13037109 C-490.86563544 926.12502434 -492.92294546 926.13034567 -494.98046875 926.13671875 C-506.82436653 926.1446821 -518.63289157 925.95233323 -530.1875 923.125 C-531.3336377 922.85610962 -531.3336377 922.85610962 -532.50292969 922.58178711 C-534.67204817 922.06752871 -536.83643256 921.53706324 -539 921 C-540.53333984 920.62681641 -540.53333984 920.62681641 -542.09765625 920.24609375 C-549.56547563 918.32139803 -556.7724786 915.66943491 -564 913 C-564 912.34 -564 911.68 -564 911 C-566.97 910.67 -569.94 910.34 -573 910 C-573 909.34 -573 908.68 -573 908 C-574.2684375 907.87625 -574.2684375 907.87625 -575.5625 907.75 C-578.93248839 907.01472981 -581.25719857 905.80729438 -584.1796875 904.0234375 C-586.51715174 902.70924086 -588.99687187 901.92941003 -591.515625 901.03125 C-601.7766879 896.77194087 -611.47925499 890.66646614 -621 885 C-621.804375 884.53207031 -622.60875 884.06414063 -623.4375 883.58203125 C-634.01755431 877.36972962 -644.15365447 870.38977697 -654.14453125 863.27734375 C-655.97116701 861.95657684 -655.97116701 861.95657684 -658 861 C-658 860.34 -658 859.68 -658 859 C-659.32 858.67 -660.64 858.34 -662 858 C-662 857.34 -662 856.68 -662 856 C-662.99 856 -663.98 856 -665 856 C-666.03786538 855.03935675 -667.02850555 854.0277152 -668 853 C-669.98195633 851.45572569 -671.98404204 849.93711579 -674 848.4375 C-675.5778125 847.25994141 -675.5778125 847.25994141 -677.1875 846.05859375 C-679.09436201 844.66287669 -681.03379828 843.31080114 -683 842 C-683 841.34 -683 840.68 -683 840 C-683.99 840 -684.98 840 -686 840 C-687.17620113 838.85740461 -688.34499642 837.70542563 -689.4609375 836.50390625 C-691.88357358 834.13660957 -694.65673742 832.27189744 -697.42578125 830.33203125 C-697.94527344 829.89246094 -698.46476563 829.45289063 -699 829 C-699 828.34 -699 827.68 -699 827 C-699.99 827 -700.98 827 -702 827 C-703.37868281 825.37064759 -704.71274093 823.70250393 -706 822 C-706.66 821.67 -707.32 821.34 -708 821 C-708 820.34 -708 819.68 -708 819 C-708.598125 818.71125 -709.19625 818.4225 -709.8125 818.125 C-712 817 -712 817 -715 815 C-715 814.34 -715 813.68 -715 813 C-715.99 812.67 -716.98 812.34 -718 812 C-718 811.34 -718 810.68 -718 810 C-718.61875 809.855625 -719.2375 809.71125 -719.875 809.5625 C-722 809 -722 809 -724 808 C-724 807.34 -724 806.68 -724 806 C-724.99 805.67 -725.98 805.34 -727 805 C-727 804.34 -727 803.68 -727 803 C-727.99 802.67 -728.98 802.34 -730 802 C-730 801.34 -730 800.68 -730 800 C-730.99 799.67 -731.98 799.34 -733 799 C-733 798.34 -733 797.68 -733 797 C-733.99 796.67 -734.98 796.34 -736 796 C-736 795.34 -736 794.68 -736 794 C-736.598125 793.71125 -737.19625 793.4225 -737.8125 793.125 C-740 792 -740 792 -743 790 C-743 789.34 -743 788.68 -743 788 C-743.99 787.67 -744.98 787.34 -746 787 C-746 786.34 -746 785.68 -746 785 C-746.99 784.67 -747.98 784.34 -749 784 C-749 783.34 -749 782.68 -749 782 C-749.99 781.67 -750.98 781.34 -752 781 C-752 780.34 -752 779.68 -752 779 C-752.99 778.67 -753.98 778.34 -755 778 C-755 777.34 -755 776.68 -755 776 C-755.99 775.67 -756.98 775.34 -758 775 C-758 774.34 -758 773.68 -758 773 C-758.99 772.67 -759.98 772.34 -761 772 C-761 771.34 -761 770.68 -761 770 C-761.680625 769.835 -762.36125 769.67 -763.0625 769.5 C-766.75866082 767.61259873 -768.72728747 765.13163169 -771.3515625 761.96875 C-773.05761815 759.86376654 -773.05761815 759.86376654 -775.4375 757.625 C-777 756 -777 756 -777 754 C-777.99 753.67 -778.98 753.34 -780 753 C-780 752.34 -780 751.68 -780 751 C-780.99 750.67 -781.98 750.34 -783 750 C-783 749.34 -783 748.68 -783 748 C-783.99 747.67 -784.98 747.34 -786 747 C-786 746.34 -786 745.68 -786 745 C-786.66 745 -787.32 745 -788 745 C-792 740.52941176 -792 740.52941176 -792 738 C-792.99 737.67 -793.98 737.34 -795 737 C-795 736.34 -795 735.68 -795 735 C-795.66 735 -796.32 735 -797 735 C-799.125 733.125 -799.125 733.125 -801 731 C-801 730.34 -801 729.68 -801 729 C-801.66 729 -802.32 729 -803 729 C-804.62109375 727.35546875 -804.62109375 727.35546875 -806.4375 725.1875 C-808.97339332 722.17536735 -808.97339332 722.17536735 -811.72265625 719.36328125 C-813 718 -813 718 -813 716 C-813.99 715.67 -814.98 715.34 -816 715 C-816.33333333 713.66666667 -816.66666667 712.33333333 -817 711 C-817.99 710.67 -818.98 710.34 -820 710 C-820 709.34 -820 708.68 -820 708 C-820.66 708 -821.32 708 -822 708 C-823.625 706.6875 -823.625 706.6875 -825 705 C-825 704.01 -825 703.02 -825 702 C-825.99 701.67 -826.98 701.34 -828 701 C-828 700.34 -828 699.68 -828 699 C-828.99 698.67 -829.98 698.34 -831 698 C-835 693.54285714 -835 693.54285714 -835 691 C-835.66 691 -836.32 691 -837 691 C-838.38089233 689.37251976 -839.70213607 687.69443347 -841 686 C-842.59882634 684.17388952 -844.20868029 682.35862671 -845.828125 680.55078125 C-847 679 -847 679 -847 677 C-847.99 676.67 -848.98 676.34 -850 676 C-850 675.34 -850 674.68 -850 674 C-850.66 674 -851.32 674 -852 674 C-853.4375 672.390625 -853.4375 672.390625 -855 670.25 C-855.515625 669.55390625 -856.03125 668.8578125 -856.5625 668.140625 C-858 666 -858 666 -859 663.796875 C-859.93115167 661.64784921 -859.93115167 661.64784921 -863 661 C-863.66666667 659.33333333 -864.33333333 657.66666667 -865 656 C-865.99 655.67 -866.98 655.34 -868 655 C-868 654.34 -868 653.68 -868 653 C-868.66 653 -869.32 653 -870 653 C-872.00031267 648.99937467 -871.62520685 644.33967105 -871 640 C-868.82951026 635.85784401 -865.46188306 633.96928164 -861.125 632.5625 C-860.35800781 632.34335937 -859.59101562 632.12421875 -858.80078125 631.8984375 C-855.19311192 630.74116561 -851.76883096 629.2268881 -848.3125 627.6875 C-847.62760498 627.38368408 -846.94270996 627.07986816 -846.23706055 626.7668457 C-844.84364088 626.14839866 -843.45049322 625.52933841 -842.05761719 624.90966797 C-836.72812433 622.55351107 -831.35889523 620.28821539 -826 618 C-825.38914551 617.72349609 -824.77829102 617.44699219 -824.14892578 617.16210938 C-821.25001313 615.86492761 -819.21430823 615 -816 615 C-816 614.34 -816 613.68 -816 613 C-814.87980469 612.59007812 -813.75960937 612.18015625 -812.60546875 611.7578125 C-811.132737 611.21374599 -809.66008489 610.66946389 -808.1875 610.125 C-807.44951172 609.85558594 -806.71152344 609.58617187 -805.95117188 609.30859375 C-804.88286133 608.91220703 -804.88286133 608.91220703 -803.79296875 608.5078125 C-803.1383667 608.26691895 -802.48376465 608.02602539 -801.80932617 607.77783203 C-799.72104063 606.94473832 -799.72104063 606.94473832 -797 605 C-794.3125 604.875 -794.3125 604.875 -792 605 C-792 604.34 -792 603.68 -792 603 C-790.58774074 602.32404685 -789.16997095 601.65959941 -787.75 601 C-786.96109375 600.62875 -786.1721875 600.2575 -785.359375 599.875 C-783 599 -783 599 -779 599 C-779 598.34 -779 597.68 -779 597 C-772.5230842 594.27414717 -766.02873364 591.59890592 -759.5 589 C-747.16979247 584.17236213 -747.16979247 584.17236213 -735.1875 578.5625 C-731.11400968 576.47353061 -726.94698677 574.72970025 -722.6875 573.0625 C-716.92764682 570.80730422 -711.32096383 568.33925496 -705.72265625 565.703125 C-700.1100644 563.09789833 -694.38994092 560.72915589 -688.68505859 558.3347168 C-683.41382473 556.10342462 -678.339732 553.68056086 -673.31323242 550.93774414 C-670.71451917 549.88427104 -668.77813399 549.82523403 -666 550 C-666 549.34 -666 548.68 -666 548 C-664.02 547.67 -662.04 547.34 -660 547 C-660 546.34 -660 545.68 -660 545 C-659.154375 544.68546875 -658.30875 544.3709375 -657.4375 544.046875 C-650.08954414 541.31938631 -650.08954414 541.31938631 -643 538 C-629.60245902 531 -629.60245902 531 -623 531 C-623 530.34 -623 529.68 -623 529 C-620.69 528.67 -618.38 528.34 -616 528 C-616 527.34 -616 526.68 -616 526 C-614.25 525.27083333 -612.5 524.54166667 -610.75 523.8125 C-609.65042969 523.35359375 -608.55085938 522.8946875 -607.41796875 522.421875 C-605.27692001 521.53119872 -603.13397462 520.64505315 -600.98828125 519.765625 C-594.65085065 517.15957877 -588.42787897 514.36634352 -582.21875 511.46875 C-578.20570805 509.6375561 -574.13769248 507.9647338 -570.0546875 506.296875 C-565.63660822 504.42116871 -561.32383026 502.3328899 -557.0078125 500.234375 C-553.97548527 498.98993941 -551.24254128 498.40652756 -548 498 C-548 497.34 -548 496.68 -548 496 C-547.41734375 495.76925781 -546.8346875 495.53851562 -546.234375 495.30078125 C-540.38549715 492.974105 -534.56687487 490.58210776 -528.76171875 488.1484375 C-527.85035156 487.76945312 -526.93898438 487.39046875 -526 487 C-525.11957031 486.62101562 -524.23914063 486.24203125 -523.33203125 485.8515625 C-521 485 -521 485 -518 485 C-518 484.34 -518 483.68 -518 483 C-515.69 482.67 -513.38 482.34 -511 482 C-511 481.34 -511 480.68 -511 480 C-509.25 479.27083333 -507.5 478.54166667 -505.75 477.8125 C-504.65042969 477.35359375 -503.55085938 476.8946875 -502.41796875 476.421875 C-500.27692001 475.53119872 -498.13397462 474.64505315 -495.98828125 473.765625 C-490.76964975 471.61964569 -485.61487489 469.38369021 -480.5 467 C-474.4006626 464.15751976 -468.22672178 461.54880478 -462 459 C-454.39533968 455.86280048 -446.81796661 452.66204902 -439.25 449.4375 C-437.91884155 448.87337402 -437.91884155 448.87337402 -436.56079102 448.29785156 C-431.89959894 446.30612039 -427.3343522 444.20883405 -422.81787109 441.90844727 C-420.15340653 440.57693066 -417.43290409 439.40371067 -414.6875 438.25 C-413.17736328 437.60804688 -413.17736328 437.60804688 -411.63671875 436.953125 C-409 436 -409 436 -406 436 C-406 435.34 -406 434.68 -406 434 C-403.36 433.67 -400.72 433.34 -398 433 C-398 432.34 -398 431.68 -398 431 C-397.26136719 430.69707031 -396.52273438 430.39414062 -395.76171875 430.08203125 C-390.67998249 427.98347435 -385.62206796 425.85623611 -380.625 423.5625 C-376.3249245 421.59657288 -372.01718215 419.64987504 -367.6875 417.75 C-366.55699219 417.24984375 -365.42648437 416.7496875 -364.26171875 416.234375 C-361.14030126 415.05309605 -358.30175597 414.41958775 -355 414 C-355 413.34 -355 412.68 -355 412 C-354.154375 411.68546875 -353.30875 411.3709375 -352.4375 411.046875 C-346.79141539 408.91676126 -341.29101697 406.7530099 -335.94140625 403.9609375 C-332.93882926 402.47475251 -329.82804688 401.28927224 -326.7109375 400.06640625 C-317.09107242 396.2848244 -317.09107242 396.2848244 -307.75 391.875 C-298.25762195 387 -298.25762195 387 -293 387 C-293 386.34 -293 385.68 -293 385 C-290.69 384.67 -288.38 384.34 -286 384 C-286 383.34 -286 382.68 -286 382 C-284.02 381.67 -282.04 381.34 -280 381 C-280 380.34 -280 379.68 -280 379 C-278.9378125 378.61328125 -277.875625 378.2265625 -276.78125 377.828125 C-269.64893817 375.20735234 -262.72671253 372.56120075 -256 369 C-255.01 368.67 -254.02 368.34 -253 368 C-252.93941406 367.22914063 -252.87882813 366.45828125 -252.81640625 365.6640625 C-252.73261719 364.66117188 -252.64882813 363.65828125 -252.5625 362.625 C-252.48128906 361.62726563 -252.40007813 360.62953125 -252.31640625 359.6015625 C-252 357 -252 357 -251 355 C-250.87077777 353.495497 -250.79764229 351.98597127 -250.75390625 350.4765625 C-250.72240479 349.54900146 -250.69090332 348.62144043 -250.65844727 347.66577148 C-250.61095337 346.1605896 -250.61095337 346.1605896 -250.5625 344.625 C-250.28605665 337.19551306 -249.87696983 329.82774203 -249.0625 322.4375 C-248.08619068 313.557072 -247.45295871 304.66339309 -246.875 295.75 C-246.83061798 295.06582001 -246.78623596 294.38164001 -246.74050903 293.67672729 C-246.4891406 289.78476571 -246.24259978 285.89251738 -246 282 C-245.34 282 -244.68 282 -244 282 C-244.03480469 280.62328125 -244.03480469 280.62328125 -244.0703125 279.21875 C-244.23766193 267.83898879 -244.23766193 267.83898879 -242.55859375 262.234375 C-241.824466 259.29786399 -241.52644824 256.38356911 -241.1875 253.375 C-238.33377742 228.85334811 -234.08395731 204.07188419 -226.96875 180.40234375 C-225.81740177 176.35869735 -224.87159844 172.28572371 -223.9375 168.1875 C-222.7586492 163.04026872 -221.48923869 157.9983695 -219.70703125 153.0234375 C-218.91849048 150.76672965 -218.27448936 148.48792601 -217.625 146.1875 C-216.24404884 141.54183866 -214.44602877 137.16638159 -212.5390625 132.71484375 C-209.11160984 124.57988978 -206.1138444 116.25870919 -203 108 C-202.34 108 -201.68 108 -201 108 C-200.67 106.35 -200.34 104.7 -200 103 C-199.34 103 -198.68 103 -198 103 C-197.93554688 102.20722656 -197.87109375 101.41445313 -197.8046875 100.59765625 C-196.7160722 95.73059463 -194.50295042 91.79258484 -192.125 87.4375 C-191.67769531 86.60025391 -191.23039063 85.76300781 -190.76953125 84.90039062 C-189.52963537 82.59067307 -188.26977603 80.29339278 -187 78 C-186.44054687 76.98035156 -185.88109375 75.96070313 -185.3046875 74.91015625 C-184.87414062 74.27980469 -184.44359375 73.64945312 -184 73 C-183.34 73 -182.68 73 -182 73 C-181.73574219 72.44699219 -181.47148438 71.89398438 -181.19921875 71.32421875 C-176.3180769 61.86402526 -169.91088348 52.2019652 -162 45 C-161.34 45 -160.68 45 -160 45 C-159.7525 44.4225 -159.505 43.845 -159.25 43.25 C-157.81700012 40.67060021 -156.21575324 38.93878408 -154 37 C-153.34 37 -152.68 37 -152 37 C-151.34 35.68 -150.68 34.36 -150 33 C-149.34 33 -148.68 33 -148 33 C-147.67 32.01 -147.34 31.02 -147 30 C-145.2578125 28.39453125 -145.2578125 28.39453125 -143.125 26.8125 C-142.42632813 26.28269531 -141.72765625 25.75289062 -141.0078125 25.20703125 C-139 24 -139 24 -136 24 C-135.67 23.01 -135.34 22.02 -135 21 C-133.42578125 19.89453125 -133.42578125 19.89453125 -131.3125 18.8125 C-128.30834924 17.23797725 -125.34503111 15.63092263 -122.4296875 13.8984375 C-121.50289185 13.35159302 -121.50289185 13.35159302 -120.55737305 12.79370117 C-119.3261891 12.0653431 -118.09837026 11.33126173 -116.87426758 10.59106445 C-113.53412638 8.63635206 -111.98392435 8 -108 8 C-108 7.34 -108 6.68 -108 6 C-105.69 5.67 -103.38 5.34 -101 5 C-101 4.34 -101 3.68 -101 3 C-96.545 2.505 -96.545 2.505 -92 2 C-92 1.34 -92 0.68 -92 0 C-91.07316406 -0.13277344 -90.14632812 -0.26554688 -89.19140625 -0.40234375 C-87.39509766 -0.66724609 -87.39509766 -0.66724609 -85.5625 -0.9375 C-83.77005859 -1.19853516 -83.77005859 -1.19853516 -81.94140625 -1.46484375 C-79.12044324 -1.68985213 -79.12044324 -1.68985213 -78 -3 C-53.00286335 -7.72359686 -24.56422542 -6.72378433 0 0 Z M-81 23 C-82.2375 23.226875 -83.475 23.45375 -84.75 23.6875 C-96.09905416 26.1017879 -107.44261896 31.52988294 -117 38 C-117.87398437 38.59039062 -118.74796875 39.18078125 -119.6484375 39.7890625 C-126.02779742 44.13299524 -126.02779742 44.13299524 -132 49 C-132 49.66 -132 50.32 -132 51 C-132.8353125 51.37125 -132.8353125 51.37125 -133.6875 51.75 C-139.23945123 54.75105472 -142.56380526 58.8601253 -146.29296875 63.82421875 C-148 66 -148 66 -150.8125 68.75 C-153.08408048 71.08648278 -154.03114764 72.91728796 -155 76 C-155.66 76 -156.32 76 -157 76 C-158.56085245 77.8770704 -158.56085245 77.8770704 -160.0625 80.25 C-160.58972656 81.03890625 -161.11695313 81.8278125 -161.66015625 82.640625 C-162.89430764 84.81388284 -163.54673055 86.56017928 -164 89 C-164.66 89 -165.32 89 -166 89 C-166.67408308 90.26691507 -167.33900497 91.53870749 -168 92.8125 C-168.37125 93.52019531 -168.7425 94.22789062 -169.125 94.95703125 C-170.19685358 97.08920729 -170.19685358 97.08920729 -170 100 C-170.66 100 -171.32 100 -172 100 C-173.17407021 102.26727333 -174.33939739 104.53834624 -175.5 106.8125 C-175.83386719 107.45509766 -176.16773438 108.09769531 -176.51171875 108.75976562 C-178.00239084 111.69547699 -179 113.66126517 -179 117 C-179.66 117 -180.32 117 -181 117 C-181.31453125 117.76183594 -181.6290625 118.52367187 -181.953125 119.30859375 C-183.92013066 124.05429114 -185.88369318 128.78474918 -188.0625 133.4375 C-190.16818787 138.11586297 -191.60366432 142.95501425 -193.0625 147.8671875 C-193.84336322 150.47657209 -194.67652968 153.05014875 -195.5625 155.625 C-196.8999901 159.58767013 -197.9892332 163.59051766 -199.05859375 167.6328125 C-199.77917693 170.21016809 -200.54125946 172.75414591 -201.34765625 175.3046875 C-205.13805402 187.36032682 -207.95269622 199.44577091 -210.37792969 211.84423828 C-211.0190023 215.09639862 -211.68263673 218.34330486 -212.3515625 221.58984375 C-215.03037631 234.64360746 -217.64650226 247.54743433 -218.4375 260.875 C-218.75063909 265.97632041 -219.47630635 270.87493048 -220.5 275.875 C-221.85965527 282.53537536 -222.4486539 289.00325916 -222.69140625 295.79296875 C-222.86314072 299.11112412 -223.3819593 302.2911759 -223.95703125 305.5625 C-225.55874169 315.57192709 -225.72606165 325.69819149 -226.125 335.8125 C-226.21158013 337.87307469 -226.29881462 339.93362199 -226.38671875 341.99414062 C-226.59868807 346.99581011 -226.80180971 351.99776635 -227 357 C-225.55678667 356.52390403 -224.11399654 356.04652504 -222.67138672 355.56860352 C-221.46613846 355.17004906 -221.46613846 355.17004906 -220.23654175 354.76344299 C-217.80725933 353.93420802 -215.46360455 352.99544015 -213.125 351.9375 C-212.04605469 351.45603516 -212.04605469 351.45603516 -210.9453125 350.96484375 C-208.76277907 349.93373906 -208.76277907 349.93373906 -206 348 C-204.34450469 347.61500109 -202.6777567 347.27206865 -201 347 C-201 346.34 -201 345.68 -201 345 C-199.824375 344.9071875 -199.824375 344.9071875 -198.625 344.8125 C-194.52969607 343.89458705 -191.40426455 342.25875311 -187.70703125 340.32421875 C-185.01125834 339.00550733 -182.33399605 337.98207784 -179.5 337 C-175.88528996 335.73940784 -172.52196895 334.32694503 -169.125 332.5625 C-164.22302729 330.02160505 -159.17411462 328.07255536 -154.0078125 326.13671875 C-150.62148304 324.85695008 -147.31046837 323.46276509 -144 322 C-144 321.34 -144 320.68 -144 320 C-142.02 319.67 -140.04 319.34 -138 319 C-138 318.34 -138 317.68 -138 317 C-135.36 316.67 -132.72 316.34 -130 316 C-130 315.34 -130 314.68 -130 314 C-129.28070312 313.88140625 -128.56140625 313.7628125 -127.8203125 313.640625 C-124.92197286 312.98227638 -122.55959911 312.01616913 -119.875 310.75 C-118.91464844 310.30398438 -117.95429687 309.85796875 -116.96484375 309.3984375 C-115.03892185 308.49003165 -113.11435953 307.57873569 -111.19140625 306.6640625 C-105.23873098 303.87770386 -99.35216668 301.69482972 -93 300 C-93 299.34 -93 298.68 -93 298 C-92.484375 297.89171875 -91.96875 297.7834375 -91.4375 297.671875 C-88.19130275 296.77708986 -85.11418642 295.5169418 -82 294.25 C-81.34080566 293.98340576 -80.68161133 293.71681152 -80.00244141 293.44213867 C-78.65240835 292.89499946 -77.30295971 292.34641603 -75.95410156 291.79638672 C-74.14556657 291.05932511 -72.33460391 290.32822787 -70.5234375 289.59765625 C-69.48445312 289.17355469 -68.44546875 288.74945313 -67.375 288.3125 C-66.45460938 287.93738281 -65.53421875 287.56226563 -64.5859375 287.17578125 C-61.96700612 286.04759591 -61.96700612 286.04759591 -59.5390625 284.5 C-56.76275742 282.85984438 -54.02898775 281.7892943 -51 280.6875 C-45.17860887 278.50695622 -39.57720758 276.01739782 -33.97265625 273.33203125 C-31.0263551 272.01180958 -28.07801728 270.96790111 -25 270 C-25 269.34 -25 268.68 -25 268 C-23.02 267.67 -21.04 267.34 -19 267 C-19 266.34 -19 265.68 -19 265 C-18.13375 264.88527344 -17.2675 264.77054688 -16.375 264.65234375 C-12.96112191 263.99248537 -10.17757486 262.95682647 -7 261.5625 C-3.04494077 259.8373114 0.88902341 258.31526781 5 257 C5 256.34 5 255.68 5 255 C6.0209375 254.90589844 7.041875 254.81179688 8.09375 254.71484375 C12.23337753 253.95729191 14.8835987 252.67353037 18.5 250.5625 C22.96557521 247.96661344 27.01949444 246.34864046 32 245 C33.62380494 244.05819313 35.24641152 243.11388396 36.8515625 242.140625 C40.69984975 240.09753431 44.81132522 238.69485943 48.88671875 237.171875 C52.31044116 235.88314636 55.65479376 234.47811438 59 233 C59 232.34 59 231.68 59 231 C59.825 230.896875 60.65 230.79375 61.5 230.6875 C65.59289012 229.88353944 69.12540225 228.53647842 73 227 C73 226.34 73 225.68 73 225 C74.19625 224.814375 75.3925 224.62875 76.625 224.4375 C81.80914335 223.31549741 86.22993828 220.98614566 90.88378906 218.54443359 C95.24367516 216.28812692 99.18544238 214.86662037 104 214 C104 213.34 104 212.68 104 212 C106.31 211.67 108.62 211.34 111 211 C111 210.34 111 209.68 111 209 C111.53874756 208.82621826 112.07749512 208.65243652 112.63256836 208.47338867 C118.35297509 206.601043 123.9637378 204.51974864 129.5625 202.3125 C130.38041016 201.99216797 131.19832031 201.67183594 132.04101562 201.34179688 C134.02813622 200.56321746 136.01418427 199.78190155 138 199 C138 198.34 138 197.68 138 197 C138.84433594 196.90203125 139.68867187 196.8040625 140.55859375 196.703125 C144.38982222 195.92035414 147.59270937 194.47784382 151.0625 192.75 C155.91470902 190.40283468 160.75462747 188.25672035 165.8125 186.375 C170.50482372 184.62251414 174.90499608 182.61164037 179.3515625 180.31640625 C188.93320834 175.55384777 198.99130081 171.75741863 209 168 C209 167.34 209 166.68 209 166 C209.845625 165.896875 210.69125 165.79375 211.5625 165.6875 C215.41442701 164.9171146 218.44075031 163.63725486 222 162 C222 161.34 222 160.68 222 160 C222.763125 160.061875 223.52625 160.12375 224.3125 160.1875 C227.04525312 160.25898085 227.04525312 160.25898085 228.8125 158.5 C229.204375 158.005 229.59625 157.51 230 157 C229.2678125 156.41476562 228.535625 155.82953125 227.78125 155.2265625 C226.11249708 153.89062266 224.44530316 152.55272685 222.78125 151.2109375 C217.04779337 146.59668302 211.24423983 142.07974515 205.3984375 137.609375 C203.03690267 135.80212004 200.69032628 133.9772461 198.3515625 132.140625 C197.75899658 131.67769043 197.16643066 131.21475586 196.5559082 130.73779297 C195.41345988 129.84476026 194.27385645 128.94807336 193.13745117 128.04736328 C190.39413997 125.70484025 190.39413997 125.70484025 187 125 C187 124.34 187 123.68 187 123 C183.36676311 120.03764305 183.36676311 120.03764305 179 119 C179 118.34 179 117.68 179 117 C178.01 116.67 177.02 116.34 176 116 C175.67 115.34 175.34 114.68 175 114 C173.28994025 113.01342707 171.57719952 112.03080957 169.84375 111.0859375 C168 110 168 110 165.25 107.75 C163.08039699 105.69302969 163.08039699 105.69302969 160 106 C160 105.34 160 104.68 160 104 C155.93426439 100.80439959 155.93426439 100.80439959 151 100 C151 99.34 151 98.68 151 98 C148.92710438 96.36179148 146.86719935 94.85747352 144.6875 93.375 C144.09259766 92.95476562 143.49769531 92.53453125 142.88476562 92.1015625 C139.28199183 89.57602251 139.28199183 89.57602251 135 89 C135 88.34 135 87.68 135 87 C134.05125 86.54625 133.1025 86.0925 132.125 85.625 C129 84 129 84 127 82 C126.01 82 125.02 82 124 82 C124 81.34 124 80.68 124 80 C122.3603125 79.01 122.3603125 79.01 120.6875 78 C119.76517578 77.443125 119.76517578 77.443125 118.82421875 76.875 C116.88638074 75.78376001 116.88638074 75.78376001 114 76 C114 75.34 114 74.68 114 74 C113.13375 73.5875 112.2675 73.175 111.375 72.75 C108.06724277 71.03486662 105.09715327 69.06476885 102 67 C100.00303026 65.9939623 98.00228309 64.99542073 96 64 C94.45199498 63.17773957 92.90662212 62.35051305 91.36328125 61.51953125 C90.53892578 61.07802734 89.71457031 60.63652344 88.86523438 60.18164062 C87.14942434 59.26137832 85.43590926 58.33682548 83.72460938 57.40820312 C82.49387695 56.75174805 82.49387695 56.75174805 81.23828125 56.08203125 C80.49618408 55.68218018 79.75408691 55.2823291 78.98950195 54.87036133 C76.90384313 53.79959943 76.90384313 53.79959943 74 54 C74 53.34 74 52.68 74 52 C71.69 51.67 69.38 51.34 67 51 C67 50.34 67 49.68 67 49 C56.9175033 44.10746104 46.70695838 39.81464422 36.22265625 35.859375 C34.6967814 35.26940581 33.17875655 34.65884694 31.66796875 34.03125 C25.10886773 31.30880262 18.46663954 29.26523293 11.625 27.375 C10.05492187 26.92640625 10.05492187 26.92640625 8.453125 26.46875 C1.35138692 24.4872774 -5.71331144 23.09797551 -13 22 C-19.125 20.9375 -19.125 20.9375 -21.8203125 20.46484375 C-30.07402853 19.25821942 -38.22383905 18.80573874 -46.5625 18.8125 C-47.60446533 18.81330566 -48.64643066 18.81411133 -49.7199707 18.81494141 C-65.71945319 18.87857151 -65.71945319 18.87857151 -81 23 Z M-260.16796875 397.1171875 C-261.2564209 397.57448242 -262.34487305 398.03177734 -263.46630859 398.50292969 C-269.42249835 401.02630647 -275.3690086 403.57187729 -281.3125 406.125 C-282.54750121 406.65500578 -283.78252717 407.1849539 -285.01757812 407.71484375 C-287.34206666 408.71231574 -289.6664551 409.71002102 -291.99072266 410.70800781 C-295.32650389 412.14017999 -298.66303948 413.57057821 -302 415 C-302 415.66 -302 416.32 -302 417 C-303.4540625 417.12375 -303.4540625 417.12375 -304.9375 417.25 C-309.69542968 417.92970424 -313.6967304 419.94666324 -318 422 C-319.43510551 422.6511368 -320.87262583 423.29697731 -322.3125 423.9375 C-323.03953125 424.26105469 -323.7665625 424.58460938 -324.515625 424.91796875 C-329.31682816 427.00905881 -334.15963939 429.00161085 -339 431 C-339 431.66 -339 432.32 -339 433 C-342.465 433.495 -342.465 433.495 -346 434 C-346 434.66 -346 435.32 -346 436 C-346.763125 436.061875 -347.52625 436.12375 -348.3125 436.1875 C-352.50627468 437.11155205 -355.93603372 438.71405477 -359.8046875 440.54296875 C-363.34365134 442.15670165 -366.94035435 443.5874223 -370.5625 445 C-374.80383699 446.66365294 -378.9530147 448.3990692 -383 450.5 C-387.62352444 452.89993889 -392.40419476 454.79985021 -397.24853516 456.69482422 C-403.62142801 459.20506539 -409.80191211 462.08764545 -416 465 C-421.85234851 467.67234899 -427.77125178 470.1671088 -433.71484375 472.62890625 C-439.49551944 475.04153071 -445.24653915 477.5232883 -451 480 C-451 480.66 -451 481.32 -451 482 C-452.02351563 482.09925781 -453.04703125 482.19851563 -454.1015625 482.30078125 C-458.14363022 483.02576133 -460.79190416 484.22243654 -464.375 486.1875 C-472.26871316 490.37468551 -480.53350459 493.20175152 -489 496 C-489 496.66 -489 497.32 -489 498 C-489.845625 498.103125 -490.69125 498.20625 -491.5625 498.3125 C-495.41442701 499.0828854 -498.44075031 500.36274514 -502 502 C-502 502.66 -502 503.32 -502 504 C-502.825 504.0825 -503.65 504.165 -504.5 504.25 C-507.91859084 504.98255518 -510.53345147 506.20497812 -513.60546875 507.83203125 C-516.46840496 509.22847159 -519.3902364 510.32566679 -522.375 511.4375 C-527.19905668 513.25413673 -531.74281826 515.30231979 -536.31640625 517.66796875 C-539.62149226 519.30848452 -542.9864879 520.79252362 -546.375 522.25 C-548.11910156 523.00023437 -548.11910156 523.00023437 -549.8984375 523.765625 C-552.28804516 524.71665273 -554.49184549 525.48107148 -557 526 C-557 526.66 -557 527.32 -557 528 C-557.845625 528.103125 -558.69125 528.20625 -559.5625 528.3125 C-563.41442701 529.0828854 -566.44075031 530.36274514 -570 532 C-570 532.66 -570 533.32 -570 534 C-571.27875 534.226875 -572.5575 534.45375 -573.875 534.6875 C-578.57166262 535.70980196 -582.44656061 537.56942962 -586.640625 539.87890625 C-589.10069956 541.04784896 -591.31882927 541.57690746 -594 542 C-594 542.66 -594 543.32 -594 544 C-595.2684375 544.1546875 -595.2684375 544.1546875 -596.5625 544.3125 C-600.41442701 545.0828854 -603.44075031 546.36274514 -607 548 C-607 548.66 -607 549.32 -607 550 C-607.87011719 550.11085938 -608.74023438 550.22171875 -609.63671875 550.3359375 C-613.08317119 551.01642172 -615.66588583 552.08262294 -618.8125 553.625 C-623.98323107 556.08949896 -629.19020061 558.35261086 -634.5 560.5 C-640.82121781 563.06210006 -647.0134792 565.79412832 -653.16796875 568.73828125 C-656.0653926 570.02913353 -658.97669484 571.04597926 -662 572 C-662 572.66 -662 573.32 -662 574 C-663.27875 574.226875 -664.5575 574.45375 -665.875 574.6875 C-670.44464718 575.69980874 -674.19427341 577.45920735 -678.31640625 579.6328125 C-684.95681489 583.01584456 -691.91650984 585.70520067 -699 588 C-699 588.66 -699 589.32 -699 590 C-699.85207031 590.09667969 -700.70414063 590.19335938 -701.58203125 590.29296875 C-705.41320669 591.08547475 -708.23852549 592.47593091 -711.6875 594.3125 C-716.83257569 596.99387075 -721.93231717 599.1597588 -727.4296875 601.04296875 C-730.028497 602.01061058 -732.41511806 603.1601015 -734.875 604.4375 C-739.71709827 606.94309371 -744.69142145 608.88455122 -749.79296875 610.796875 C-754.22444316 612.45935261 -758.61187589 614.22692051 -763 616 C-763 616.66 -763 617.32 -763 618 C-763.763125 618.061875 -764.52625 618.12375 -765.3125 618.1875 C-769.54427588 619.11992519 -773.02959294 620.73068604 -776.9375 622.5703125 C-779.93390023 623.9691422 -782.95402164 625.27557414 -786 626.5625 C-790.94269083 628.66342004 -795.85541754 630.82212959 -800.7578125 633.015625 C-801.35938171 633.28459091 -801.96095093 633.55355682 -802.58074951 633.83067322 C-805.64162933 635.19954555 -808.70079937 636.57195798 -811.7578125 637.94946289 C-813.459375 638.71117798 -813.459375 638.71117798 -815.1953125 639.48828125 C-816.21641113 639.94759033 -817.23750977 640.40689941 -818.28955078 640.88012695 C-820.53928629 641.80964747 -822.62501275 642.50240723 -825 643 C-825 643.66 -825 644.32 -825 645 C-825.825 645.0825 -826.65 645.165 -827.5 645.25 C-831.76753921 646.16447269 -835.19236894 647.92223178 -839 650 C-837.57268007 652.92846676 -836.13071088 655.51417063 -834 658 C-833.34 658 -832.68 658 -832 658 C-832 658.99 -832 659.98 -832 661 C-830.88137896 662.18641625 -829.75040714 663.36343107 -828.5625 664.48046875 C-824.69064822 668.24584461 -821.22169134 672.45491977 -817.875 676.6875 C-815.97974334 679.10685001 -815.97974334 679.10685001 -813.5 681.5 C-811.11853328 683.88146672 -809.10128402 686.37339497 -807 689 C-805.88625 690.0828125 -805.88625 690.0828125 -804.75 691.1875 C-801.55592992 694.45416258 -798.83441831 697.97069055 -796.0625 701.59765625 C-794.09695142 704.04614417 -794.09695142 704.04614417 -791.6875 705.80859375 C-788.68289725 708.25856779 -786.32689579 710.95676654 -783.81201172 713.89453125 C-775.71104844 723.30745329 -766.92073433 732.17843087 -758.1875 741 C-757.49986572 741.70060547 -756.81223145 742.40121094 -756.10375977 743.12304688 C-755.14554321 744.08307617 -755.14554321 744.08307617 -754.16796875 745.0625 C-753.60360107 745.63097656 -753.0392334 746.19945312 -752.45776367 746.78515625 C-751.06019794 748.21339902 -751.06019794 748.21339902 -749 748 C-748.505 749.485 -748.505 749.485 -748 751 C-747.34 751 -746.68 751 -746 751 C-745.505 752.485 -745.505 752.485 -745 754 C-744.34 754 -743.68 754 -743 754 C-742.72671875 754.58910156 -742.4534375 755.17820312 -742.171875 755.78515625 C-739.11412654 761.56430084 -734.17808848 766.11643364 -729 770 C-728.34 770 -727.68 770 -727 770 C-726.505 771.485 -726.505 771.485 -726 773 C-725.34 773 -724.68 773 -724 773 C-723.505 774.485 -723.505 774.485 -723 776 C-722.34 776 -721.68 776 -721 776 C-721 776.66 -721 777.32 -721 778 C-719.28668011 779.81067374 -719.28668011 779.81067374 -717.125 781.625 C-716.40570312 782.25664063 -715.68640625 782.88828125 -714.9453125 783.5390625 C-713.13893067 785.20017123 -713.13893067 785.20017123 -711 785 C-711 785.66 -711 786.32 -711 787 C-709.35648543 788.36176922 -707.68477344 789.68962066 -706 791 C-705.154375 791.886875 -704.30875 792.77375 -703.4375 793.6875 C-701.27459458 796.13262078 -701.27459458 796.13262078 -698.8125 796.5 C-698.214375 796.665 -697.61625 796.83 -697 797 C-696.566875 798.1446875 -696.566875 798.1446875 -696.125 799.3125 C-694.86692705 802.31789648 -693.59857798 803.18122007 -690.85546875 804.8203125 C-687.69764883 806.82802116 -684.85871934 809.2572272 -681.953125 811.609375 C-680.12806398 813.19333487 -680.12806398 813.19333487 -678 813 C-677.67 813.99 -677.34 814.98 -677 816 C-676.34 816 -675.68 816 -675 816 C-674.67 816.99 -674.34 817.98 -674 819 C-671.62349283 820.99146106 -671.62349283 820.99146106 -668.75 822.9375 C-665.84316272 824.97621425 -663.00623496 826.99486061 -660.265625 829.25390625 C-658.21271194 831.20347882 -658.21271194 831.20347882 -656 831 C-656 831.66 -656 832.32 -656 833 C-654.68 833.33 -653.36 833.66 -652 834 C-652 834.66 -652 835.32 -652 836 C-649.82541722 837.821042 -649.82541722 837.821042 -647.125 839.625 C-646.22007812 840.25664063 -645.31515625 840.88828125 -644.3828125 841.5390625 C-642.18166294 843.17423105 -642.18166294 843.17423105 -640 843 C-640 843.66 -640 844.32 -640 845 C-638.31792068 846.36819481 -638.31792068 846.36819481 -636.1875 847.625 C-635.47980469 848.07101562 -634.77210938 848.51703125 -634.04296875 848.9765625 C-631.93378793 850.22394864 -631.93378793 850.22394864 -629 850 C-629 850.66 -629 851.32 -629 852 C-626.95379793 853.45795633 -626.95379793 853.45795633 -624.375 854.875 C-621.35555028 856.617483 -618.40662604 858.35891066 -615.5625 860.375 C-613.08346388 862.26777101 -613.08346388 862.26777101 -610 862 C-609.67 862.99 -609.34 863.98 -609 865 C-606.16905118 866.68332831 -606.16905118 866.68332831 -602.6875 868.25 C-598.02319305 870.47482579 -593.54154002 872.80269083 -589.125 875.5 C-582.66206172 879.33656496 -575.92766568 882.2895894 -568.99951172 885.16796875 C-567.11047275 885.95403039 -565.22880197 886.75773178 -563.34765625 887.5625 C-553.93170938 891.4883671 -544.34439494 894.63845416 -534.50146484 897.31835938 C-532.9200433 897.74929134 -531.34169884 898.19183048 -529.76806641 898.65039062 C-517.55281679 902.13808936 -505.36214542 902.39151584 -492.75 902.4375 C-491.94306702 902.44376404 -491.13613403 902.45002808 -490.30474854 902.45648193 C-475.35994378 902.52977615 -461.51901091 900.7733704 -447.4375 895.5 C-446.61443359 895.20480469 -445.79136719 894.90960937 -444.94335938 894.60546875 C-440.22095064 892.89439647 -435.59662992 891.02375116 -431 889 C-431 888.34 -431 887.68 -431 887 C-428.69 886.34 -426.38 885.68 -424 885 C-424 884.34 -424 883.68 -424 883 C-423.2575 882.896875 -422.515 882.79375 -421.75 882.6875 C-418.8026481 881.95066203 -417.21616926 881.05200858 -415 879 C-415 878.34 -415 877.68 -415 877 C-413.9171875 876.9071875 -413.9171875 876.9071875 -412.8125 876.8125 C-409.06324172 875.72938094 -407.66386797 873.84971923 -405 871 C-402.87779513 869.15890809 -400.73219591 867.34976036 -398.57421875 865.55078125 C-398.05472656 865.03902344 -397.53523438 864.52726562 -397 864 C-397 863.34 -397 862.68 -397 862 C-396.01 861.67 -395.02 861.34 -394 861 C-394 860.34 -394 859.68 -394 859 C-393.01 858.67 -392.02 858.34 -391 858 C-391 857.34 -391 856.68 -391 856 C-390.01 855.67 -389.02 855.34 -388 855 C-388 854.34 -388 853.68 -388 853 C-387.01 852.67 -386.02 852.34 -385 852 C-379.60411603 846.31721831 -375.02299412 839.78341546 -370.4375 833.4375 C-369.99591553 832.83010986 -369.55433105 832.22271973 -369.09936523 831.59692383 C-366.75377476 828.59530107 -366.75377476 828.59530107 -366 825 C-365.34 825 -364.68 825 -364 825 C-363.67 823.68 -363.34 822.36 -363 821 C-362.34 821 -361.68 821 -361 821 C-360.67 819.35 -360.34 817.7 -360 816 C-359.34 816 -358.68 816 -358 816 C-354.85904005 810.37128859 -351.73739431 804.73236925 -348.6640625 799.06640625 C-347.47895308 796.88257786 -346.28531984 794.70336599 -345.0859375 792.52734375 C-340.51794196 784.17732805 -336.51819701 775.69194808 -332.81591797 766.92578125 C-332.0345726 765.08160044 -331.23832424 763.24375515 -330.44140625 761.40625 C-326.79676986 752.99991983 -323.35961624 744.52292026 -320 736 C-319.65582031 735.15953125 -319.31164062 734.3190625 -318.95703125 733.453125 C-317.51337868 729.84738243 -316.63412211 726.90269754 -317 723 C-316.34 723 -315.68 723 -315 723 C-311.39427557 712.39917018 -307.9861769 701.79521692 -305 691 C-304.31491021 688.58264897 -303.62740816 686.16598029 -302.9375 683.75 C-302.61136719 682.60015625 -302.28523437 681.4503125 -301.94921875 680.265625 C-301.09502718 677.32692477 -300.17961758 674.41542038 -299.25 671.5 C-298.15187987 667.90291459 -297.70070115 664.79111882 -298 661 C-297.34 661 -296.68 661 -296 661 C-293.8424277 652.63667363 -293.8424277 652.63667363 -292.0625 644.1875 C-291.25011395 639.93442008 -290.15070658 635.79896519 -289 631.625 C-287.44304597 625.97686296 -286.30885112 620.35808942 -285.4296875 614.56640625 C-284.88164936 611.29312391 -283.92650752 608.1848696 -283 605 C-282.50409025 602.50241816 -282.06998352 599.99681019 -281.6328125 597.48828125 C-280.81491971 592.97977344 -279.90672403 588.49135054 -279 584 C-276.79644845 573.02051233 -274.81859837 562.11311386 -273.46484375 550.9921875 C-273 548 -273 548 -272 547 C-271.6439802 544.5407708 -271.33739761 542.09349683 -271.0625 539.625 C-270.5167705 534.9921482 -269.95081208 530.3947098 -269.0625 525.8125 C-267.36596617 516.93220574 -266.24343137 507.95239542 -265 499 C-264.8747998 498.10812988 -264.74959961 497.21625977 -264.62060547 496.29736328 C-262.72218557 482.77081212 -261.01306201 469.22724238 -259.43115234 455.66015625 C-259.03765092 452.31962776 -258.63434455 448.98047544 -258.22813416 445.64147949 C-256.18126982 428.76518843 -254.37109668 412.01478257 -254 395 C-256.10400009 395 -258.2773074 396.32284986 -260.16796875 397.1171875 Z " fill="#020302" transform="translate(1071,190)"/>
<path d="M0 0 C2 0 2 0 4.625 2.3125 C7 5 7 5 7 8 C6.34 8 5.68 8 5 8 C5 7.34 5 6.68 5 6 C2.525 5.01 2.525 5.01 0 4 C0 2.68 0 1.36 0 0 Z " fill="#EDD093" transform="translate(388,997)"/>
</svg>
